<?xml version="1.0" encoding="utf-8"?>
<!-- Generator: Adobe Illustrator 27.9.4, SVG Export Plug-In . SVG Version: 9.03 Build 54784)  -->
<svg version="1.1" id="Calque_1" xmlns="http://www.w3.org/2000/svg" xmlns:xlink="http://www.w3.org/1999/xlink" x="0px" y="0px"
	 viewBox="0 0 1285 487.2" style="enable-background:new 0 0 1285 487.2;" xml:space="preserve">
<style type="text/css">
	.st0{fill:#DCCD9D;}
</style>
<path class="st0" d="M1230.5,4.4c-13.8-0.6-27.1-1.1-40.6-2.4c-16.2-1.6-28.6,5.2-44.2,3.8c-49.1-4.4-96.9,2.9-147.7,2.9
	c-17.3,0-34.5-0.1-51.8-1.5c-28.5-2.4-54.8,2.9-83.2,1.5c-12.7-0.6-28.1-5.2-40.6-3.1c-12.6,2.2-20.4,8.6-34.4,9.1
	c-23,0.7-46.1-8.5-69.1-4.2c-14.1,2.6-24.1,8.6-39.3,8.7c-12.6,0.1-24.8,0.9-37.2,1.4c-12.4-0.5-24.6-1.3-37.2-1.4
	c-15.1-0.1-25.1-6.1-39.3-8.7c-23-4.3-46.1,4.9-69.1,4.2c-14-0.4-21.7-6.9-34.4-9.1c-12.5-2.2-27.9,2.5-40.6,3.1
	c-28.4,1.4-54.8-3.9-83.2-1.5c-17.3,1.4-34.4,1.5-51.8,1.5c-50.8,0-98.6-7.3-147.7-2.9C123.7,7.2,111.3,0.4,95.1,2
	C81.6,3.3,68.3,3.7,54.5,4.4C36.4,5.2,18.2,6.2,0,6.8v480.5h642.5H1285V6.8C1266.8,6.2,1248.6,5.2,1230.5,4.4z"/>
<path d="M1220.7,2.1c-7.6-0.3-15.1-0.7-22.7-1.3c-7.1-0.5-13.9-1.3-21-0.4c-5.6,0.7-11,1.9-16.5,2.8c-7.2,1.1-14,0.7-21.2,0.2
	c-26-1.8-52-0.5-78,1c-26.5,1.5-53,2.7-79.5,2.4c-13-0.1-25.9-0.9-38.8-1.7c-12.8-0.8-25.6-0.2-38.4,0.6c-13.3,0.8-26.6,1.8-40,1.2
	c-11.5-0.5-22.7-3.6-34.2-3.7c-10.8-0.1-19.8,4.3-29.9,7.4c-11.9,3.7-24.5,2.1-36.7,0.4c-11.9-1.7-23.8-3.9-35.8-3.4
	c-11.4,0.5-21.8,4.6-32.7,7.4c-12,3.2-24.7,2.4-37.1,3c-5.3,0.2-10.6,0.5-15.9,0.6c-5.3-0.1-10.5-0.3-15.9-0.6
	c-12.4-0.6-25,0.2-37.1-3c-10.9-2.9-21.3-6.9-32.7-7.4c-12-0.6-24,1.6-35.8,3.4c-12.2,1.8-24.7,3.3-36.7-0.4
	c-10-3.1-19.1-7.5-29.9-7.4c-11.5,0.1-22.7,3.2-34.2,3.7c-13.3,0.5-26.7-0.4-40-1.2C367.6,5,354.8,4.3,342,5.1
	c-12.9,0.8-25.8,1.6-38.8,1.7c-26.6,0.3-53-0.9-79.5-2.4c-26-1.5-52-2.8-78-1c-7.2,0.5-14,0.9-21.2-0.2c-5.5-0.9-11-2.1-16.5-2.8
	c-7.1-0.9-13.9-0.1-21,0.4c-7.5,0.6-15.1,0.9-22.7,1.3C42.9,3,21.5,4.3,0,4.9v3.7c18.4-0.6,36.9-1.6,55.3-2.4
	c13.3-0.6,26.5-1.3,39.8-2.4c11.7-0.9,22.8,2.6,34.4,3.7c5.5,0.5,10.8,0,16.3-0.4c6.9-0.5,13.8-0.7,20.7-0.8
	c13.2-0.2,26.5,0.2,39.7,0.9c26.4,1.3,52.8,3.3,79.2,3.4c13,0,25.9,0,38.9-0.6c13.5-0.6,26.8-1.8,40.3-1.4c12.7,0.4,25.3,1.6,38,2
	c12.4,0.4,24.4-0.4,36.6-2.2c5.5-0.8,11.1-1.6,16.7-1.5c6,0.1,11.7,1.6,17.3,3.6c4.6,1.7,9.1,3.5,13.8,4.7
	c5.8,1.4,11.7,1.6,17.7,1.3c12.4-0.6,24.5-3.4,36.9-4.6c12.9-1.3,24.8,0,37.1,3.8c5.4,1.6,10.7,3.4,16.3,4.4
	c6.7,1.2,13.5,1,20.3,1.2c9.1,0.3,18.2,1,27.3,1.2c9.1-0.2,18.2-1,27.3-1.2c6.8-0.2,13.6,0,20.3-1.2c5.6-1,10.9-2.7,16.3-4.4
	c12.3-3.8,24.3-5.1,37.1-3.8c12.3,1.2,24.5,4,36.9,4.6c5.9,0.3,11.9,0.1,17.7-1.3c4.8-1.1,9.3-3,13.8-4.7c5.6-2,11.3-3.5,17.3-3.6
	c5.6-0.1,11.2,0.7,16.7,1.5c12.3,1.8,24.2,2.6,36.6,2.2c12.7-0.4,25.4-1.6,38-2c13.5-0.5,26.9,0.8,40.3,1.4
	c12.9,0.6,25.9,0.6,38.9,0.6c26.4-0.1,52.8-2.2,79.2-3.4c13.2-0.6,26.5-1,39.7-0.9c6.9,0.1,13.8,0.4,20.7,0.8
	c5.5,0.4,10.8,0.9,16.3,0.4c11.6-1.1,22.6-4.7,34.4-3.7c13.2,1,26.5,1.7,39.8,2.4c18.4,0.8,36.9,1.9,55.3,2.4V4.9
	C1263.5,4.3,1242.1,3,1220.7,2.1z"/>
<g>
	<g>
		<g>
			<path d="M337.3,116.6c6-1.1,12.1,0.2,18.1,0c5.4-0.2,10.9-3,16-0.1c1,0.5,1.9-1,0.9-1.5c-2.5-1.4-5.1-1.8-8-1.5
				c-2.9,0.3-5.6,1.2-8.5,1.3c-6.4,0.3-12.7-1.1-19,0C335.7,115.1,336.2,116.8,337.3,116.6L337.3,116.6z"/>
		</g>
	</g>
	<g>
		<g>
			<path d="M385.8,114.3c1.4,0.5,3,0.7,4.5,0.5c0.5-0.1,0.9-0.4,0.9-0.9c0-0.4-0.4-0.9-0.9-0.9c-0.7,0.1-1.4,0.1-2.1,0
				c0,0-0.3,0-0.1,0c-0.1,0-0.2,0-0.3,0c-0.2,0-0.3-0.1-0.5-0.1c-0.4-0.1-0.7-0.2-1-0.3c-0.4-0.2-1,0.2-1.1,0.6
				C385.1,113.7,385.3,114.1,385.8,114.3L385.8,114.3z"/>
		</g>
	</g>
	<g>
		<g>
			<path d="M288.5,126c2.5-1.2,5.4-0.8,8-0.8c1.1,0,1.1-1.8,0-1.8c-3,0-6.1-0.3-8.9,1.1c-0.4,0.2-0.5,0.8-0.3,1.2
				C287.5,126.1,288,126.2,288.5,126L288.5,126z"/>
		</g>
	</g>
	<g>
		<g>
			<path d="M357.6,235c2.5-3.4,7-4.2,11-3.8c0.5,0.1,0.9-0.4,0.9-0.9c0-0.5-0.4-0.8-0.9-0.9c-4.7-0.5-9.6,0.7-12.5,4.7
				c-0.3,0.4-0.1,1,0.3,1.2C356.8,235.5,357.3,235.3,357.6,235L357.6,235z"/>
		</g>
	</g>
	<g>
		<g>
			<path d="M236,214.2c3-0.8,6-1.5,9.1-2c3.1-0.5,6.3-1.1,9.4-0.8c5.6,0.4,10.9,2.9,16.6,2.4c1.1-0.1,1.1-1.9,0-1.8
				c-5.8,0.5-11.2-2.1-17-2.4c-3-0.2-6.1,0.3-9,0.8c-3.2,0.5-6.4,1.3-9.6,2.1C234.4,212.7,234.9,214.4,236,214.2L236,214.2z"/>
		</g>
	</g>
	<g>
		<g>
			<path d="M223.7,141.6c6.1-1.8,14.6-2.5,18.9,3.1c0.7,0.9,1.9-0.4,1.2-1.2c-4.8-6-14-5.5-20.6-3.5
				C222.2,140.2,222.6,141.9,223.7,141.6L223.7,141.6z"/>
		</g>
	</g>
	<g>
		<g>
			<path d="M138.7,118.6c7.9-0.7,15.8-4.1,23.8-1.9c1.1,0.3,1.6-1.4,0.5-1.7c-8.2-2.2-16.1,1.2-24.3,1.9
				C137.6,116.9,137.6,118.6,138.7,118.6L138.7,118.6z"/>
		</g>
	</g>
	<g>
		<g>
			<path d="M171.9,109.1c1.6-0.2,3.2-0.5,4.9-0.6c1.7,0,3.3,0.3,4.8,1c0.4,0.2,0.9,0.1,1.2-0.3c0.2-0.4,0.1-1-0.3-1.2
				c-1.8-0.8-3.6-1.2-5.6-1.2c-1.8,0-3.7,0.4-5.5,0.6c-0.5,0.1-0.7,0.7-0.6,1.1C171,109,171.4,109.2,171.9,109.1L171.9,109.1z"/>
		</g>
	</g>
	<g>
		<g>
			<path d="M109.5,108.7c3,0,5.9-1,9-0.9c1.1,0,1.1-1.8,0-1.8c-3,0-5.9,0.9-9,0.9C108.3,106.9,108.3,108.7,109.5,108.7L109.5,108.7z
				"/>
		</g>
	</g>
	<g>
		<g>
			<path d="M125.5,115.3c1.5,0,2.9-0.4,4.4-0.7c1.2-0.2,2.5-0.4,3.5,0.4c0.4,0.3,0.9,0.4,1.2,0c0.3-0.3,0.4-0.9,0-1.2
				c-2.7-2.4-6-0.2-9.1-0.3C124.4,113.5,124.4,115.2,125.5,115.3L125.5,115.3z"/>
		</g>
	</g>
	<g>
		<g>
			<path d="M101.2,168.5c2.1,0.3,4-0.1,6-0.8c1.8-0.6,3.6-1.4,5.6-1.5c1.1-0.1,1.1-1.8,0-1.8c-1.9,0.1-3.7,0.8-5.5,1.4
				c-1.8,0.6-3.6,1.2-5.5,0.9c-0.5-0.1-0.9,0.1-1.1,0.6C100.5,167.8,100.8,168.4,101.2,168.5L101.2,168.5z"/>
		</g>
	</g>
	<g>
		<g>
			<path d="M65.4,160.9c3.1-0.4,6.1-1,9.2-0.9c1.1,0,1.1-1.7,0-1.8c-3.3-0.1-6.5,0.5-9.7,1c-0.5,0.1-0.7,0.7-0.6,1.1
				C64.5,160.8,65,161,65.4,160.9L65.4,160.9z"/>
		</g>
	</g>
	<g>
		<g>
			<path d="M40.2,106.7c2-1.1,4.3-1.3,6.5-1.1c2.1,0.1,4.4,0.6,6.1,2c0.9,0.7,2.1-0.5,1.2-1.2c-2-1.7-4.6-2.3-7.1-2.5
				c-2.6-0.2-5.3,0.1-7.6,1.4C38.3,105.7,39.2,107.2,40.2,106.7L40.2,106.7z"/>
		</g>
	</g>
	<g>
		<g>
			<path d="M583.2,118c6.4-2.1,12.8-3.3,19.6-3.3c1.1,0,1.1-1.8,0-1.8c-6.9,0-13.5,1.2-20,3.3C581.6,116.7,582.1,118.4,583.2,118
				L583.2,118z"/>
		</g>
	</g>
</g>
<g>
	<g>
		<g>
			<path d="M978.6,116.6c5.6-1.1,11.2,0.2,16.9,0c5.1-0.2,10.1-3,14.9-0.1c0.9,0.6,1.8-0.9,0.9-1.5c-2.3-1.4-4.8-1.8-7.4-1.5
				c-2.7,0.3-5.2,1.2-7.9,1.3c-6,0.3-11.8-1.1-17.7,0C977.1,115.2,977.6,116.8,978.6,116.6L978.6,116.6z"/>
		</g>
	</g>
	<g>
		<g>
			<path d="M1023.7,114.3c1.3,0.5,2.8,0.7,4.2,0.5c0.4-0.1,0.9-0.4,0.9-0.9c0-0.4-0.4-0.9-0.9-0.9c-0.7,0.1-1.3,0.1-2,0
				c-0.2,0,0.2,0-0.1,0c-0.1,0-0.2,0-0.2,0c-0.2,0-0.3-0.1-0.5-0.1c-0.3-0.1-0.7-0.2-1-0.3c-0.4-0.2-1,0.2-1,0.6
				C1023,113.7,1023.3,114.1,1023.7,114.3L1023.7,114.3z"/>
		</g>
	</g>
	<g>
		<g>
			<path d="M933.3,125.9c2.3-1.2,5-0.8,7.5-0.8c1.1,0,1.1-1.7,0-1.7c-2.8,0-5.7-0.3-8.3,1.1c-0.4,0.2-0.5,0.8-0.3,1.2
				C932.4,126.1,932.9,126.1,933.3,125.9L933.3,125.9z"/>
		</g>
	</g>
	<g>
		<g>
			<path d="M997.6,234.9c2.3-3.4,6.4-4.3,10.2-3.8c0.5,0.1,0.9-0.4,0.9-0.9c0-0.5-0.4-0.8-0.9-0.9c-2.1-0.3-4.4-0.1-6.4,0.6
				c-2.2,0.8-3.9,2.2-5.2,4.1C995.5,235,996.9,235.8,997.6,234.9L997.6,234.9z"/>
		</g>
	</g>
	<g>
		<g>
			<path d="M884.5,214.1c2.8-0.8,5.7-1.5,8.5-2c2.8-0.5,5.8-1,8.7-0.8c5.2,0.4,10.1,2.9,15.4,2.4c1.1-0.1,1.1-1.8,0-1.7
				c-5.4,0.5-10.5-2.1-15.8-2.4c-2.7-0.2-5.6,0.3-8.3,0.8c-3,0.5-6,1.3-9,2.1C883,212.8,883.4,214.4,884.5,214.1L884.5,214.1z"/>
		</g>
	</g>
	<g>
		<g>
			<path d="M873.1,141.6c5.6-1.8,13.5-2.4,17.4,2.9c0.6,0.9,2.1,0,1.5-0.9c-4.4-6-12.9-5.8-19.4-3.7
				C871.6,140.3,872,141.9,873.1,141.6L873.1,141.6z"/>
		</g>
	</g>
	<g>
		<g>
			<path d="M794,118.5c7.4-0.7,14.7-4.1,22.1-1.9c1.1,0.3,1.5-1.3,0.5-1.6c-7.7-2.2-15,1.2-22.6,1.9
				C792.9,116.9,792.9,118.6,794,118.5L794,118.5z"/>
		</g>
	</g>
	<g>
		<g>
			<path d="M824.9,109.1c1.5-0.2,3-0.5,4.5-0.6c1.6,0,3.1,0.3,4.5,1c0.4,0.2,0.9,0.1,1.2-0.3c0.2-0.4,0.1-1-0.3-1.2
				c-1.6-0.8-3.4-1.2-5.2-1.2c-1.7,0-3.4,0.4-5.1,0.6c-0.5,0.1-0.7,0.6-0.6,1C824,109,824.5,109.1,824.9,109.1L824.9,109.1z"/>
		</g>
	</g>
	<g>
		<g>
			<path d="M766.9,108.6c2.8,0,5.5-1,8.3-0.9c1.1,0,1.1-1.7,0-1.7c-2.8,0-5.5,0.9-8.3,0.9C765.8,106.9,765.8,108.6,766.9,108.6
				L766.9,108.6z"/>
		</g>
	</g>
	<g>
		<g>
			<path d="M781.8,115.2c1.4,0,2.7-0.4,4.1-0.7c1.1-0.2,2.3-0.4,3.2,0.5c0.8,0.8,2-0.4,1.2-1.2c-1.2-1.1-2.7-1.3-4.3-1
				c-1.4,0.2-2.8,0.8-4.2,0.7C780.7,113.5,780.7,115.2,781.8,115.2L781.8,115.2z"/>
		</g>
	</g>
	<g>
		<g>
			<path d="M759.2,168.4c1.9,0.3,3.8-0.1,5.6-0.8c1.7-0.6,3.3-1.4,5.2-1.5c1.1-0.1,1.1-1.8,0-1.7c-1.8,0.1-3.5,0.8-5.2,1.4
				c-1.6,0.6-3.3,1.2-5.1,0.9c-0.5-0.1-0.9,0.1-1,0.6C758.5,167.8,758.7,168.4,759.2,168.4L759.2,168.4z"/>
		</g>
	</g>
	<g>
		<g>
			<path d="M725.9,160.9c2.8-0.4,5.7-1,8.5-0.9c1.1,0,1.1-1.7,0-1.7c-3-0.1-6,0.5-9,1c-0.5,0.1-0.7,0.6-0.6,1
				C725,160.8,725.5,161,725.9,160.9L725.9,160.9z"/>
		</g>
	</g>
	<g>
		<g>
			<path d="M702.5,106.6c1.8-1,4-1.3,6.1-1.2c1.9,0.1,4.1,0.6,5.6,2c0.8,0.7,2-0.5,1.2-1.2c-1.8-1.6-4.3-2.3-6.6-2.5
				c-2.4-0.2-5,0.2-7.1,1.4C700.7,105.7,701.5,107.2,702.5,106.6L702.5,106.6z"/>
		</g>
	</g>
	<g>
		<g>
			<path d="M1207.3,118c5.9-2.1,11.9-3.3,18.2-3.3c1.1,0,1.1-1.7,0-1.7c-6.4,0-12.6,1.2-18.6,3.3
				C1205.8,116.7,1206.2,118.4,1207.3,118L1207.3,118z"/>
		</g>
	</g>
</g>
</svg>
