<?xml version="1.0" encoding="utf-8"?>
<!-- Generator: Adobe Illustrator 27.9.4, SVG Export Plug-In . SVG Version: 9.03 Build 54784)  -->
<svg version="1.1" id="Calque_1" xmlns="http://www.w3.org/2000/svg" xmlns:xlink="http://www.w3.org/1999/xlink" x="0px" y="0px"
	 viewBox="0 0 576 48.6" style="enable-background:new 0 0 576 48.6;" xml:space="preserve">
<style type="text/css">
	.st0{fill:#DCA26F;}
</style>
<path d="M571.6,3.2c-1.6,0.3-3.2,0.1-4.9,0c-1.8-0.1-3.6-0.2-5.5,0.1c-1.8,0.3-3.5,1.2-5.3,1.9c-3.1,1.1-6.1,1.5-9.4,1.5
	c-2,0-4,0-5.9-0.6c-1.4-0.5-2.5-1.3-3.9-1.9c-3-1.4-5.8-0.6-8.7,0.7c-1.7,0.8-3.4,1.5-5.2,1c-1.8-0.4-3.4-1.4-5.2-1.9
	c-3.8-1.1-7.8-0.6-11.7-0.6c-2.1,0-4.1-0.2-6.1-0.8c-1.7-0.5-3.2-1.3-4.8-1.9c-1.7-0.5-3.4-0.7-5.1-0.4c-1.7,0.3-3.2,1.1-4.7,1.7
	c-3.3,1.3-6.6,0.8-9.9,0.1c-3.3-0.8-6.6-1.4-9.9-0.6c-3.6,0.9-6.9,2.7-9.9,4.7c-1.5,1-2.9,2.1-4.3,3.2c-3.1-1.2-6.1-2.9-9.4-3.8
	c-3.2-0.9-6.6-1-9.7,0.2c-2.5,0.9-4.7,2.2-6.9,3.7c-1.9-1.5-4.2-2.3-6.5-3c-1.2-0.4-2.5-0.8-3.7-1.3c-1.3-0.5-2.5-1.3-3.7-2
	c-1.8-1.1-3.9-2.1-6-1.8c-2.1,0.2-3.9,1.4-5.5,2.6c-2.2,1.7-4.2,3.3-6.7,4.4c-2.5,1.1-5.1,1.8-7.7,2.1c-2.8,0.4-5.3,1.4-7.7,2.8
	c-0.2-0.2-0.5-0.3-0.8-0.2c-4.2,0.5-7.5-3.3-11.8-3.1c-2.9,0.1-5.5,1.7-7.8,3.7c-6.8-1.7-13.5-4.7-20.6-3.2c-2.9,0.6-5.6,2-8.3,3.4
	c-2.7,1.4-5.4,3.2-8.6,3.1c-3-0.1-5.8-1.1-8.7-1.9c-1.5-0.4-3-0.7-4.6-0.8c-1.6-0.1-3.1,0.2-4.6,0.4c-4.6,0.6-9.2,0.6-13.8,0.7
	c-4.6-0.1-9.2-0.1-13.8-0.7c-1.5-0.2-3-0.5-4.6-0.4c-1.5,0.1-3.1,0.4-4.6,0.8c-2.9,0.7-5.7,1.8-8.7,1.9c-3.1,0.1-5.9-1.7-8.6-3.1
	c-2.6-1.4-5.3-2.8-8.3-3.4c-7.1-1.5-13.8,1.5-20.6,3.2c-2.2-2-4.8-3.5-7.8-3.7c-4.2-0.2-7.5,3.6-11.8,3.1c-0.4,0-0.6,0.1-0.8,0.2
	c-2.3-1.4-4.8-2.4-7.7-2.8c-2.7-0.4-5.3-1-7.7-2.1c-2.5-1.1-4.6-2.7-6.7-4.4c-1.6-1.3-3.4-2.4-5.5-2.6c-2.2-0.2-4.2,0.8-6,1.8
	c-1.2,0.7-2.4,1.5-3.7,2c-1.2,0.5-2.5,0.9-3.7,1.3c-2.3,0.7-4.6,1.5-6.5,3c-2.2-1.5-4.5-2.8-6.9-3.7c-3.2-1.1-6.5-1.1-9.7-0.2
	c-3.2,1-6.2,2.6-9.4,3.8c-1.4-1.1-2.8-2.2-4.3-3.2c-3-2-6.4-3.9-9.9-4.7c-3.4-0.8-6.6-0.2-9.9,0.6c-3.4,0.8-6.6,1.3-9.9-0.1
	c-1.6-0.6-3.1-1.4-4.7-1.7C84.3-0.2,82.6,0,81,0.6c-1.6,0.6-3.2,1.4-4.8,1.9c-2,0.6-4,0.8-6.1,0.8c-3.9,0-7.9-0.5-11.7,0.6
	c-1.8,0.5-3.4,1.5-5.2,1.9c-1.8,0.5-3.5-0.2-5.2-1c-2.9-1.3-5.7-2.1-8.7-0.7c-1.3,0.6-2.5,1.5-3.9,1.9c-1.9,0.6-3.9,0.6-5.9,0.6
	c-3.3,0-6.3-0.3-9.4-1.5c-1.8-0.6-3.4-1.5-5.3-1.9C12.9,3,11.1,3.1,9.3,3.2c-1.6,0.1-3.2,0.2-4.9,0C3,2.9,1.5,2.6,0,2.5V5v43.6h288
	h288V5V2.5C574.5,2.6,573,2.9,571.6,3.2z"/>
<path class="st0" d="M569.4,5.8c-1.9,0-3.8-0.3-5.6-0.3c-2,0-3.7,0.6-5.5,1.4c-2.8,1.2-5.7,1.9-8.8,2.1c-3.5,0.2-7.3,0.4-10.6-1
	c-1.3-0.5-2.4-1.4-3.7-1.9c-1.5-0.6-2.9-0.4-4.4,0.2c-1.6,0.6-3.1,1.4-4.7,1.9c-1.6,0.4-3.2,0.3-4.8-0.2c-1.7-0.6-3.3-1.4-5.1-1.9
	c-1.9-0.5-3.9-0.5-5.9-0.5c-3.8,0.1-7.7,0.4-11.4-0.9c-3.3-1.1-6.3-3.1-9.9-1.9c-1.5,0.5-3,1.3-4.5,1.8c-1.6,0.5-3.3,0.6-4.9,0.5
	c-3.2-0.2-6.2-1.4-9.4-1.7c-3.6-0.3-7.1,0.9-10.2,2.7c-6,3.3-10.8,8.3-17,11.2c-1.5,0.7-3.1,1.3-4.7,1.8c-1.5,0.5-2.2-1.9-0.7-2.4
	c3.2-1,6.2-2.4,9-4.2c0.7-0.5,1.4-1,2.1-1.5c-2.4-1.1-4.8-2.2-7.4-3c-3.3-1-6.5-1-9.7,0.5c-3.1,1.4-6,3.4-8.8,5.5
	c-2.7,2-5.1,4.3-8.2,5.6c-1.5,0.6-2.1-1.8-0.7-2.4c3.2-1.3,5.8-4,8.6-6c0.1-0.1,0.2-0.2,0.3-0.2c-3.4-2.3-8-2.6-11.6-4.7
	c-1.8-1-3.7-2.5-5.8-2.4c-2,0.1-3.8,1.6-5.2,2.8c-4,3.3-8.7,5.5-13.8,6.2c-4.5,0.6-8.1,2.6-11.7,5.3c-4,3-7.9,6.1-12.7,7.8
	c-1.5,0.5-2.2-1.9-0.7-2.4c4.8-1.6,8.7-5.1,12.8-8c-1.1-0.2-2.1-0.6-3.2-1c-1.7-0.7-3.4-1.8-5.2-1.9c-4.4-0.4-8.3,4-10.9,7.1
	c-1,1.2-2.8-0.6-1.8-1.8c0.6-0.7,1.2-1.4,1.9-2.1c-5.7-1.6-11.5-4-17.5-2.9c-3,0.6-5.7,2-8.4,3.4c-2.6,1.4-5.4,3-8.4,3.2
	c-2.9,0.2-5.8-0.6-8.6-1.4c-3.1-0.9-6-1.4-9.3-1c-5,0.7-9.9,0.8-14.9,0.8c-5-0.1-9.9-0.2-14.9-0.8c-3.3-0.4-6.1,0.1-9.3,1
	c-2.8,0.8-5.7,1.6-8.6,1.4c-3-0.2-5.8-1.8-8.4-3.2c-2.7-1.4-5.4-2.8-8.4-3.4c-6-1.1-11.8,1.3-17.5,2.9c0.7,0.7,1.3,1.4,1.9,2.1
	c1.1,1.2-0.7,3-1.8,1.8c-2.6-3-6.5-7.5-10.9-7.1c-1.9,0.2-3.5,1.2-5.2,1.9c-1,0.5-2.1,0.8-3.2,1c4.1,2.9,8,6.4,12.8,8
	c1.5,0.5,0.9,2.9-0.7,2.4c-4.8-1.7-8.7-4.8-12.7-7.8c-3.6-2.7-7.2-4.7-11.7-5.3c-5.1-0.7-9.9-3-13.8-6.2c-1.5-1.2-3.2-2.8-5.2-2.8
	c-2.2-0.1-4.1,1.4-5.8,2.4c-3.5,2.1-8.2,2.4-11.6,4.7c0.1,0.1,0.2,0.2,0.3,0.2c2.8,2,5.4,4.7,8.6,6c1.5,0.6,0.8,3-0.7,2.4
	c-3.1-1.3-5.5-3.6-8.2-5.6c-2.8-2.1-5.7-4.1-8.8-5.5c-3.2-1.4-6.4-1.5-9.7-0.5c-2.5,0.8-4.9,2-7.4,3c0.7,0.5,1.4,1,2.1,1.5
	c2.8,1.8,5.8,3.3,9,4.2c1.5,0.5,0.9,2.9-0.7,2.4c-1.6-0.5-3.2-1.1-4.7-1.8c-6.3-2.8-11.1-7.9-17-11.2c-3.1-1.7-6.6-3-10.2-2.7
	c-3.2,0.3-6.2,1.5-9.4,1.7c-1.7,0.1-3.4,0-4.9-0.5c-1.6-0.5-3-1.3-4.5-1.8c-3.6-1.2-6.5,0.7-9.9,1.9C73.3,6,69.4,5.7,65.6,5.7
	c-2,0-4,0-5.9,0.5c-1.8,0.4-3.4,1.3-5.1,1.9c-1.6,0.5-3.2,0.6-4.8,0.2c-1.6-0.4-3.1-1.3-4.7-1.9c-1.4-0.5-2.9-0.8-4.4-0.2
	c-1.3,0.5-2.4,1.4-3.7,1.9c-3.3,1.4-7.1,1.2-10.6,1c-3.1-0.2-5.9-1-8.8-2.1c-1.8-0.7-3.5-1.3-5.5-1.4c-1.9,0-3.8,0.2-5.6,0.3
	C4.4,5.9,2.2,5,0,5v43.6h288h288V5C573.8,5,571.6,5.9,569.4,5.8z"/>
<path d="M571.6,3.2c-1.6,0.3-3.2,0.1-4.9,0c-1.8-0.1-3.6-0.2-5.5,0.1c-1.8,0.3-3.5,1.2-5.3,1.9c-3.1,1.1-6.1,1.5-9.4,1.5
	c-2,0-4,0-5.9-0.6c-1.4-0.5-2.5-1.3-3.9-1.9c-3-1.4-5.8-0.6-8.7,0.7c-1.7,0.8-3.4,1.5-5.2,1c-1.8-0.4-3.4-1.4-5.2-1.9
	c-3.8-1.1-7.8-0.6-11.7-0.6c-2.1,0-4.1-0.2-6.1-0.8c-1.7-0.5-3.2-1.3-4.8-1.9c-1.7-0.5-3.4-0.7-5.1-0.4c-1.7,0.3-3.2,1.1-4.7,1.7
	c-3.3,1.3-6.6,0.8-9.9,0.1c-3.3-0.8-6.6-1.4-9.9-0.6c-3.6,0.9-6.9,2.7-9.9,4.7c-1.5,1-2.9,2.1-4.3,3.2c-3.1-1.2-6.1-2.9-9.4-3.8
	c-3.2-0.9-6.6-1-9.7,0.2c-2.5,0.9-4.7,2.2-6.9,3.7c-1.9-1.5-4.2-2.3-6.5-3c-1.2-0.4-2.5-0.8-3.7-1.3c-1.3-0.5-2.5-1.3-3.7-2
	c-1.8-1.1-3.9-2.1-6-1.8c-2.1,0.2-3.9,1.4-5.5,2.6c-2.2,1.7-4.2,3.3-6.7,4.4c-2.5,1.1-5.1,1.8-7.7,2.1c-2.8,0.4-5.3,1.4-7.7,2.8
	c-0.2-0.2-0.5-0.3-0.8-0.2c-4.2,0.5-7.5-3.3-11.8-3.1c-2.9,0.1-5.5,1.7-7.8,3.7c-6.8-1.7-13.5-4.7-20.6-3.2c-2.9,0.6-5.6,2-8.3,3.4
	c-2.7,1.4-5.4,3.2-8.6,3.1c-3-0.1-5.8-1.1-8.7-1.9c-1.5-0.4-3-0.7-4.6-0.8c-1.6-0.1-3.1,0.2-4.6,0.4c-4.6,0.6-9.2,0.6-13.8,0.7
	c-4.6-0.1-9.2-0.1-13.8-0.7c-1.5-0.2-3-0.5-4.6-0.4c-1.5,0.1-3.1,0.4-4.6,0.8c-2.9,0.7-5.7,1.8-8.7,1.9c-3.1,0.1-5.9-1.7-8.6-3.1
	c-2.6-1.4-5.3-2.8-8.3-3.4c-7.1-1.5-13.8,1.5-20.6,3.2c-2.2-2-4.8-3.5-7.8-3.7c-4.2-0.2-7.5,3.6-11.8,3.1c-0.4,0-0.6,0.1-0.8,0.2
	c-2.3-1.4-4.8-2.4-7.7-2.8c-2.7-0.4-5.3-1-7.7-2.1c-2.5-1.1-4.6-2.7-6.7-4.4c-1.6-1.3-3.4-2.4-5.5-2.6c-2.2-0.2-4.2,0.8-6,1.8
	c-1.2,0.7-2.4,1.5-3.7,2c-1.2,0.5-2.5,0.9-3.7,1.3c-2.3,0.7-4.6,1.5-6.5,3c-2.2-1.5-4.5-2.8-6.9-3.7c-3.2-1.1-6.5-1.1-9.7-0.2
	c-3.2,1-6.2,2.6-9.4,3.8c-1.4-1.1-2.8-2.2-4.3-3.2c-3-2-6.4-3.9-9.9-4.7c-3.4-0.8-6.6-0.2-9.9,0.6c-3.4,0.8-6.6,1.3-9.9-0.1
	c-1.6-0.6-3.1-1.4-4.7-1.7C84.3-0.2,82.6,0,81,0.6c-1.6,0.6-3.2,1.4-4.8,1.9c-2,0.6-4,0.8-6.1,0.8c-3.9,0-7.9-0.5-11.7,0.6
	c-1.8,0.5-3.4,1.5-5.2,1.9c-1.8,0.5-3.5-0.2-5.2-1c-2.9-1.3-5.7-2.1-8.7-0.7c-1.3,0.6-2.5,1.5-3.9,1.9c-1.9,0.6-3.9,0.6-5.9,0.6
	c-3.3,0-6.3-0.3-9.4-1.5c-1.8-0.6-3.4-1.5-5.3-1.9C12.9,3,11.1,3.1,9.3,3.2c-1.6,0.1-3.2,0.2-4.9,0C3,2.9,1.5,2.6,0,2.5V5
	C2.2,5,4.4,5.9,6.6,5.8c1.9,0,3.8-0.3,5.6-0.3c2,0,3.7,0.6,5.5,1.4c2.8,1.2,5.7,1.9,8.8,2.1c3.5,0.2,7.3,0.4,10.6-1
	c1.3-0.5,2.4-1.4,3.7-1.9c1.5-0.6,2.9-0.4,4.4,0.2c1.6,0.6,3.1,1.4,4.7,1.9C51.4,8.6,53,8.5,54.6,8c1.7-0.6,3.3-1.4,5.1-1.9
	c1.9-0.5,3.9-0.5,5.9-0.5C69.4,5.7,73.3,6,77,4.8c3.3-1.1,6.3-3.1,9.9-1.9c1.5,0.5,3,1.3,4.5,1.8c1.6,0.5,3.3,0.6,4.9,0.5
	c3.2-0.2,6.2-1.4,9.4-1.7c3.6-0.3,7.1,0.9,10.2,2.7c6,3.3,10.8,8.3,17,11.2c1.5,0.7,3.1,1.3,4.7,1.8c1.5,0.5,2.2-1.9,0.7-2.4
	c-3.2-1-6.2-2.4-9-4.2c-0.7-0.5-1.4-1-2.1-1.5c2.4-1.1,4.8-2.2,7.4-3c3.3-1,6.5-1,9.7,0.5c3.1,1.4,6,3.4,8.8,5.5
	c2.7,2,5.1,4.3,8.2,5.6c1.5,0.6,2.1-1.8,0.7-2.4c-3.2-1.3-5.8-4-8.6-6c-0.1-0.1-0.2-0.2-0.3-0.2c3.4-2.3,8-2.6,11.6-4.7
	c1.8-1,3.7-2.5,5.8-2.4c2,0.1,3.8,1.6,5.2,2.8c4,3.3,8.7,5.5,13.8,6.2c4.5,0.6,8.1,2.6,11.7,5.3c4,3,7.9,6.1,12.7,7.8
	c1.5,0.5,2.2-1.9,0.7-2.4c-4.8-1.6-8.7-5.1-12.8-8c1.1-0.2,2.1-0.6,3.2-1c1.7-0.7,3.4-1.8,5.2-1.9c4.4-0.4,8.3,4,10.9,7.1
	c1,1.2,2.8-0.6,1.8-1.8c-0.6-0.7-1.2-1.4-1.9-2.1c5.7-1.6,11.5-4,17.5-2.9c3,0.6,5.7,2,8.4,3.4c2.6,1.4,5.4,3,8.4,3.2
	c2.9,0.2,5.8-0.6,8.6-1.4c3.1-0.9,6-1.4,9.3-1c5,0.7,9.9,0.8,14.9,0.8c5-0.1,9.9-0.2,14.9-0.8c3.3-0.4,6.1,0.1,9.3,1
	c2.8,0.8,5.7,1.6,8.6,1.4c3-0.2,5.8-1.8,8.4-3.2c2.7-1.4,5.4-2.8,8.4-3.4c6-1.1,11.8,1.3,17.5,2.9c-0.7,0.7-1.3,1.4-1.9,2.1
	c-1.1,1.2,0.7,3,1.8,1.8c2.6-3,6.5-7.5,10.9-7.1c1.9,0.2,3.5,1.2,5.2,1.9c1,0.5,2.1,0.8,3.2,1c-4.1,2.9-8,6.4-12.8,8
	c-1.5,0.5-0.9,2.9,0.7,2.4c4.8-1.7,8.7-4.8,12.7-7.8c3.6-2.7,7.2-4.7,11.7-5.3c5.1-0.7,9.9-3,13.8-6.2c1.5-1.2,3.2-2.8,5.2-2.8
	c2.2-0.1,4.1,1.4,5.8,2.4c3.5,2.1,8.2,2.4,11.6,4.7c-0.1,0.1-0.2,0.2-0.3,0.2c-2.8,2-5.4,4.7-8.6,6c-1.5,0.6-0.8,3,0.7,2.4
	c3.1-1.3,5.5-3.6,8.2-5.6c2.8-2.1,5.7-4.1,8.8-5.5c3.2-1.4,6.4-1.5,9.7-0.5c2.5,0.8,4.9,2,7.4,3c-0.7,0.5-1.4,1-2.1,1.5
	c-2.8,1.8-5.8,3.3-9,4.2c-1.5,0.5-0.9,2.9,0.7,2.4c1.6-0.5,3.2-1.1,4.7-1.8c6.3-2.8,11.1-7.9,17-11.2c3.1-1.7,6.6-3,10.2-2.7
	c3.2,0.3,6.2,1.5,9.4,1.7c1.7,0.1,3.4,0,4.9-0.5c1.6-0.5,3-1.3,4.5-1.8c3.6-1.2,6.5,0.7,9.9,1.9c3.7,1.2,7.6,0.9,11.4,0.9
	c2,0,4,0,5.9,0.5c1.8,0.4,3.4,1.3,5.1,1.9c1.6,0.5,3.2,0.6,4.8,0.2c1.6-0.4,3.1-1.3,4.7-1.9c1.4-0.5,2.9-0.8,4.4-0.2
	c1.3,0.5,2.4,1.4,3.7,1.9c3.3,1.4,7.1,1.2,10.6,1c3.1-0.2,5.9-1,8.8-2.1c1.8-0.7,3.5-1.3,5.5-1.4c1.9,0,3.8,0.2,5.6,0.3
	c2.2,0,4.4-0.8,6.6-0.9V2.5C574.5,2.6,573,2.9,571.6,3.2z"/>
</svg>
