<?xml version="1.0" encoding="utf-8"?>
<!-- Generator: Adobe Illustrator 27.9.4, SVG Export Plug-In . SVG Version: 9.03 Build 54784)  -->
<svg version="1.1" id="Calque_1" xmlns="http://www.w3.org/2000/svg" xmlns:xlink="http://www.w3.org/1999/xlink" x="0px" y="0px"
	 viewBox="0 0 2071.8 204.4" style="enable-background:new 0 0 2071.8 204.4;" xml:space="preserve">
<style type="text/css">
	.st0{fill:#41AD36;}
	.st1{fill:#A0E05E;}
	.st2{fill:#6BC744;}
	.st3{fill:#2C8A22;}
</style>
<g>
	<g>
		<path class="st0" d="M219,101.5c-4.3-4.9-11.8-6.6-18-4.9C217.4,76,190,35.2,166.2,58c7-6.7,12.4-14.9,15.9-24
			c1.8-4.7,3-10.3,0.3-14.5c-3.5-5.4-11.5-5.6-17.6-3.5c-9.2,3.2-16.7,10.3-20.9,19.1c-0.4-1-0.8-1.9-1.4-2.8
			c-3.8-5.9-12.1-8.6-18.6-6c-3.3,1.3-6,3.8-7.7,6.9c1.1-7.5,1.4-15.1-1-22.2c-1.3-3.9-3.6-7.7-7.3-9.7C101.3-2.2,92.7,1.8,89,8.2
			c-3.8,6.4-3.7,14.3-2.7,21.7c1,7.4,2.8,14.7,2.3,22.1C85.9,40.1,74.3,30.8,62.2,31C50,31.2,38.7,40.7,36.5,52.7
			c-2.4-4.6-2.9-9.8-4.7-14.7c-1.7-4.9-5.2-9.7-10.3-10.4c-3.9-0.5-7.8,1.7-10.2,4.9C9,35.6,8,39.6,7.7,43.5
			c-1,13.2,5.4,26.6,16.2,34.2c-5.7-2.9-10.6-7.3-16.5-9.9c-2.6-1.2-5.1-1.6-7.4-1.3v98c1.9,1.2,4,2.3,6.2,3
			c8.7,3,18.1,3.4,27.3,3.6c30,0.5,59.5-4.5,89.3-5.2c26.1-0.6,49.4-2.5,73.3-14.9c9.4-4.8,18.5-10.9,23.9-20
			C225.4,122,226,109.4,219,101.5z"/>
		<path class="st0" d="M1036.7,46.9c-8.7-2.8-20.1-1.8-28.5,2.3c8.9-4.5,13-16.9,8.1-25.5c-4.2-7.3-14.5-10.4-22.2-6.9
			c-10.8,4.9-9.1,15.4-9.1,25.5c-0.1-9.5-8.9-17.9-18.4-17.7c-7.4,0.2-14.1,5.6-16.6,12.4c0.3-2.4,0.5-4.8,0.3-7.2
			c-0.3-4.4-2-8.9-5.4-11.8c-3.4-2.8-8.7-3.6-12.3-1c-10.1,7.4,0.9,28.5,2.7,37.7c-1.6-7.9-10.8-13.2-18.4-10.6
			c-4.3,1.5-7.4,5.3-8.7,9.7c-0.4-3-1-5.9-2-8.8c-2.2-6-6.5-11.5-12.6-13.4s-13.7,0.8-15.9,6.7c-1.5,4.1-0.4,8.6,0.8,12.8
			c1.9,7,3.9,14.1,5.8,21.1c-3.2-6.2-12.7-21.2-20.3-22.1c-10.2-1.2-16.1,12.5-15.9,20.6c0.1,7.9,3.6,15.4,7.4,22.3
			c-3.1-4.6-8.1-7.7-13.5-8.8c1.9-20.7-20.1-45-39.6-26.2c7-6.7,12.4-14.9,15.9-24c1.8-4.7,3-10.3,0.3-14.5
			c-3.5-5.4-11.5-5.6-17.6-3.5c-9.2,3.2-16.7,10.3-20.9,19.1c-0.4-1-0.8-1.9-1.4-2.8c-3.8-5.9-12.1-8.6-18.6-6
			c-3.3,1.3-6,3.8-7.7,6.9c1.1-7.5,1.4-15.1-1-22.2c-1.3-3.9-3.6-7.7-7.3-9.7c-6.5-3.5-15.2,0.5-18.9,6.9
			c-3.8,6.4-3.7,14.3-2.7,21.7c1,7.4,2.8,14.7,2.3,22.1c-2.6-11.9-14.2-21.1-26.3-20.9c-12.1,0.2-23.5,9.7-25.7,21.7
			c-2.4-4.6-2.9-9.8-4.7-14.7c-1.7-4.9-5.2-9.7-10.3-10.4c-3.9-0.5-7.8,1.7-10.2,4.9c-2.3,3.2-3.3,7.2-3.6,11.1
			c-1,13.2,5.4,26.6,16.2,34.2c-5.7-2.9-10.6-7.3-16.5-9.9c-5.9-2.6-13.6-2.8-17.9,1.9c-4,4.4-3.5,11.3-1.7,16.9
			c3.1,9.7,9.5,18.2,17.8,24.2c8.1,5.9,18.6,6.1,24.7,13.6c14.1,17.3,34.1,30.4,55.6,36.5c36.3,10.2,76.6,7.5,110.3-9.8
			c9.4-4.8,18.5-10.9,23.9-20c0.7-1.1,1.3-2.3,1.8-3.6c21.5,21.6,49.6,22.4,77.2,21.5l-3,2.4c1.8-0.1,3.6-0.2,5.4-0.4
			c4.3-0.5,8.2-1.3,12-2.5c29-1,58.2-0.2,87.4,0.7V46.9z M837,96.6c0.6-0.8,1.2-1.6,1.7-2.4c0.3,0.6,0.6,1.3,1,1.9
			C838.7,96.2,837.8,96.3,837,96.6z"/>
		<path class="st1" d="M1036.7,112.5c-8.1-4.3-19.3-0.5-25.4,6.8c-6.6,7.9-8.9,18.4-10.9,28.6c1.3-7.3,2.5-14.8,0.7-22
			c-1.9-7.1-7.7-13.8-15.1-14.1c-8.2-0.3-14.7,7-18.3,14.4c-5.8,12.2-7.1,26.5-3.6,39.5c-3.1-5.1-6.3-10.4-11.4-13.4
			c-5.1-3.1-12.6-3-16.2,1.7c-2.9,3.8-2.4,9.1-1,13.6c2.1,6.7,6.1,12.8,11.3,17.6c-5.6-2.7-11.9-3.8-18.1-3.2
			c-1,0.1,8.6,14.9,9.8,16c2.6,2.4,5.2,3.8,8.1,5.1h90.1V112.5z"/>
		<path id="XMLID_187_" class="st0" d="M459,116.7c-9,1.7-19.1,1.6-26.2,5.6c-19.8,11.1-34.3,26-58.2,28.7
			c-24.7,2.7-62.3-5.6-80.2-24.1c-4.1-4.3-24.1-42.8-23.3-42.9c8.1-1.4,16.8,2.3,21.4,9.1c-3.8-7-7.2-14.4-7.4-22.3
			c-0.1-8.1,5.7-21.8,15.9-20.6c7.6,0.9,17.2,15.9,20.3,22.1c-1.9-7-3.9-14.1-5.8-21.1c-1.2-4.2-2.3-8.7-0.8-12.8
			c2.2-6,9.9-8.7,15.9-6.7s10.4,7.5,12.6,13.4c2.2,6,2.5,12.4,2.8,18.8c-3.6-7.1,0.4-17.1,8-19.7c7.6-2.6,16.8,2.7,18.4,10.6
			c-1.8-9.2-12.8-30.3-2.7-37.7c3.6-2.6,8.9-1.9,12.3,1c3.4,2.8,5.1,7.4,5.4,11.8c0.3,4.4-0.5,8.9-1.3,13.2
			c-0.3-9.5,8.2-18.3,17.6-18.5c9.5-0.2,18.2,8.3,18.4,17.7c0-10.1-1.7-20.5,9.1-25.5c7.6-3.5,18-0.4,22.2,6.9
			c5,8.7,0.9,21.1-8.1,25.5c18.3-9.2,51.2-3,38.5,24.7c-3.3,7.2-9.4,12.8-15.6,17.7c6.8-1.6,11.4,8.4,8,14.5
			C472.7,112.8,466.2,115.3,459,116.7z"/>
		<path id="XMLID_186_" class="st2" d="M370.8,192.9c7.4,3.7,16.2,5.3,22.7,10.2h365.6c5.6-9.8,6.6-22.4,0.8-32.1
			c-9.4-15.6-33.6-19-47.5-7.6c7.5-7.7,12.2-18,13-28.8c-10.9-2.1-22.7,0.9-31.2,8c11.1-10.2,18.4-25.1,17.4-40.1
			S700.3,73,685.8,68.7c-14.5-4.2-32,3.7-36.7,18.1c1.1-18-12.4-35.7-30.1-39.4c-17.6-3.7-37.1,7.1-43.3,24
			c-2.3-20.5-7.2-44.7-26.3-52.6c-16.6-6.9-36.2,3.4-45.9,18.5c-8.6,13.3-11.3,29.4-13.1,45.2c-1.5-9.8-14.3-18-23.8-12.8
			c-10,5.4-10.9,20.8-3.6,29.2c-11.8-9-29.1-10.5-42-3c-13.2,7.6-20.6,23.8-18.3,38.8c-2.9-6.8-13.5-9.8-20.1-5.4
			c-7.7,5.3-9.4,16.4-6.3,25.3c3.1,8.8,9.7,15.8,16.2,22.5c-4.5-4.5-9.3-9.2-15.3-11.2c-6-2.1-13.8-0.7-17.1,4.7
			C355.2,178.6,362.5,188.8,370.8,192.9z"/>
		<path id="XMLID_185_" class="st2" d="M84.1,197.6c4.4,2.2,9.3,3.5,13.7,5.5h302.7c3.3-7.4,3.5-16.3-0.8-23.3
			c-7.6-12.7-27.3-15.4-38.5-6.2c6.1-6.2,9.9-14.6,10.5-23.3c-8.8-1.7-18.4,0.7-25.3,6.5c9-8.2,14.9-20.4,14.1-32.6
			c-0.8-12.2-9.1-24-20.9-27.4c-11.7-3.4-26,3-29.8,14.7c0.9-14.6-10.1-29-24.4-31.9c-14.3-3-30.1,5.8-35.1,19.5
			c-1.9-16.6-5.9-36.2-21.3-42.6c-13.4-5.6-29.4,2.8-37.3,15c-7,10.8-9.2,23.8-10.7,36.7c-1.2-8-11.6-14.6-19.3-10.4
			c-8.1,4.4-8.8,16.9-2.9,23.7c-9.6-7.3-23.6-8.5-34.1-2.5c-10.7,6.2-16.7,19.3-14.8,31.5c-2.4-5.5-11-8-16.3-4.3
			c-6.3,4.3-7.6,13.3-5.1,20.5c2.5,7.2,7.9,12.8,13.2,18.3c-3.7-3.7-7.5-7.4-12.4-9.1c-4.9-1.7-11.2-0.6-13.9,3.8
			C71.4,186,77.4,194.2,84.1,197.6z"/>
		<path id="XMLID_184_" class="st2" d="M717.6,199.5c2.9,1.5,6.1,2.5,9.1,3.6h278c2.4-6.4,2.3-13.8-1.2-19.7
			c-6.9-11.5-24.7-14-34.9-5.6c5.5-5.6,9-13.3,9.6-21.1c-8-1.6-16.7,0.7-22.9,5.9c8.2-7.5,13.5-18.4,12.8-29.5
			c-0.8-11.1-8.3-21.8-18.9-24.9c-10.6-3.1-23.5,2.7-27,13.3c0.8-13.2-9.1-26.2-22.1-28.9c-12.9-2.7-27.3,5.2-31.8,17.7
			c-1.7-15.1-5.3-32.8-19.3-38.6c-12.2-5-26.6,2.5-33.8,13.6c-6.3,9.8-8.3,21.6-9.7,33.2c-1.1-7.2-10.5-13.2-17.5-9.4
			c-7.3,4-8,15.3-2.7,21.5c-8.7-6.6-21.4-7.7-30.9-2.2c-9.7,5.6-15.2,17.5-13.4,28.5c-2.1-5-9.9-7.2-14.8-3.9
			c-5.7,3.9-6.9,12.1-4.6,18.6c2.2,6.5,7.2,11.6,11.9,16.6c-3.3-3.3-6.8-6.7-11.3-8.3c-4.4-1.5-10.1-0.5-12.6,3.5
			C706.2,189,711.5,196.4,717.6,199.5z"/>
		<path id="XMLID_183_" class="st1" d="M567,197.6c1,2,2,3.8,3.1,5.5h219.2c1.6-1,3.2-2.1,4.6-3.4c5.4-5,8.3-13.5,4.6-19.9
			c-2.8-4.9-8.8-7.4-14.5-7.4c-5.7,0-11.1,2.2-16.2,4.7c8.2-5.9,14.9-14.6,16.3-24.7c1.4-10-3.3-21.2-12.4-25.5
			c-9.1-4.4-22,0.1-24.9,9.8c1.9-7.8,3.7-15.8,3.3-23.8c-0.4-8-3.4-16.3-9.7-21.3c-9.4-7.4-23.4-5.7-33.8,0.1
			c-14.6,8.1-25,23.4-27.1,40c-2.7-8.1,0.3-16.9,0.7-25.5c0.3-8.6-4.7-19.1-13.2-18.5c-5.5,0.4-9.6,5.3-12.6,9.9
			c-10.4,16.2-16.9,34.7-19.1,53.8c-12.2-11.7-12.5-35.3-28.7-40.2c-11.3-3.4-23.2,6.3-26.6,17.7s-0.6,23.5,2.2,35
			c-2.5-6.4-5.2-13.1-10.3-17.7c-5.1-4.6-13.4-6.5-18.9-2.3c-6.6,5.1-5.6,15.4-2.4,23.1C554.8,177.7,561.9,187.3,567,197.6z"/>
		<path class="st1" d="M162.5,184.5c-2.2-4-7-6-11.6-5.9c-4.5,0-8.9,1.8-13,3.8c6.6-4.7,11.9-11.7,13-19.7c1.1-8-2.6-16.9-9.9-20.4
			c-7.3-3.5-17.6,0.1-19.9,7.9c1.5-6.3,3-12.6,2.7-19.1c-0.3-6.4-2.7-13.1-7.8-17.1c-7.5-6-18.7-4.5-27.1,0.1
			c-11.7,6.5-20,18.8-21.7,32c-2.2-6.5,0.3-13.6,0.5-20.4c0.3-6.9-3.7-15.3-10.6-14.8c-4.4,0.3-7.7,4.2-10,7.9
			c-8.3,12.9-13.6,27.8-15.3,43.1c-9.8-9.3-10-28.3-23-32.1c-3-0.9-6-0.6-8.9,0.4v73h155.1c1.3-0.8,2.5-1.7,3.7-2.7
			C163.1,196.4,165.4,189.6,162.5,184.5z"/>
		<path id="XMLID_182_" class="st1" d="M309.9,203.1h159.5c0.2-0.1,0.4-0.2,0.5-0.3c7.9-5.1,14.4-12.8,16.4-22
			c2-9.2-1.4-19.7-9.4-24.7c-5.6-3.5-13.4-3.4-18.9-0.1c5.4-8.7,3.9-21.9-4.8-28c-9.6-6.7-24.4-2.1-29.7,7.9
			c2.1-5.9,4-11.9,4.2-18.1c0.3-7.8-2.3-16.1-8.5-20.7c-9.8-7.4-24.7-2.8-32.6,6.6c-7.9,9.3-10.5,21.9-12.9,33.9
			c1.5-8.6,3-17.6,0.8-26.1c-2.2-8.5-9.2-16.4-17.9-16.8c-9.8-0.4-17.5,8.3-21.7,17.1c-6.9,14.5-8.5,31.4-4.2,46.9
			c-3.6-6-7.5-12.3-13.5-15.9c-6-3.6-14.9-3.6-19.2,2c-3.4,4.5-2.8,10.8-1.2,16.2c2.5,8,7.2,15.2,13.4,20.9
			c-6.6-3.2-14.2-4.5-21.5-3.8c-1.1,0.1,10.2,17.6,11.7,19.1C303.4,199.9,306.5,201.6,309.9,203.1z"/>
		<path id="XMLID_181_" class="st2" d="M717.7,143.3c-2-1.5-4.5-1.9-6.9-1.3c1.6-8.5,0.5-19-10.4-18.4c-7.4,0.4-13.1,5.5-15.7,12
			c-1.9-3.9-5.8-6.4-10.8-5.8c-7.2,1-10,7.8-9.6,14.4c0.1,1.8,2.9,1.8,2.8,0c-0.2-3.5,0.1-8.7,4-10.5c6.1-2.7,12.2,0.8,12.2,7.8
			c0,1.8,2.6,1.8,2.8,0c0.6-6.4,4.4-11.9,10.5-14.2c12.2-4.6,13,8.4,11,16.3c-0.3,0.3-0.7,0.6-1,1c-1.1,1.4,0.9,3.4,2,2
			c0.1-0.1,0.2-0.3,0.4-0.4c0.4-0.1,0.8-0.3,1-0.8c1.7-1.1,4.1-1.3,5.9,0c2.6,1.8,2.8,5.4,1.3,8c-0.9,1.6,1.5,3,2.4,1.4
			C721.7,151.1,721.3,146,717.7,143.3z"/>
		<path id="XMLID_180_" class="st2" d="M628.9,146.1c-6.2-1.4-8.7,4.1-9.6,9.4c-2.7-4.6-6.8-9.8-11.9-6.5c-6.1,3.9-3.9,13,0.4,17.2
			c1.3,1.3,3.3-0.7,2-2c-1.7-1.7-2.9-3.5-3.2-6c-0.3-3.2,0.8-9.9,7-5.9c2.5,1.6,4.2,6.1,5.5,8.7c0.7,1.2,2.6,0.6,2.6-0.7
			c0-3.6-0.3-9.3,3.7-10.9c6.2-2.6,8,7.7,6.3,10.5c-0.9,1.5,1.5,3,2.4,1.4C636.8,156.8,634.6,147.4,628.9,146.1z"/>
		<path id="XMLID_179_" class="st2" d="M709.3,173.7c-4.9,1.5-11,7.5-9.1,13.1c0.6,1.7,3.3,1,2.7-0.7c-1.3-3.8,3.5-8.3,6.8-9.5
			c4-1.4,7.8,1.4,8.4,5.4c0.3,1.8,3,1,2.7-0.7C720.1,175.9,714.6,172.1,709.3,173.7z"/>
		<path id="XMLID_178_" class="st2" d="M407.2,140.4c-2.4-2.9-7.6-3.7-10-0.7c-1.1-5.3-6-10.5-11.2-11.3c-5.1-0.8-9.5,3.8-11.3,8.8
			c-2.3-1.7-5.5-2.3-8.3-1c-5.4,2.5-8.4,10.7-3.9,15.4c1.3,1.3,3.2-0.7,2-2c-2.8-2.9-1-7.9,1.8-10.1c2.3-1.8,6-1.4,7.7,0.7
			c-0.1,0.9-0.1,1.8,0,2.6c0.1,0.5,0.4,0.8,0.8,0.9c0,0.1,0,0.1,0,0.2c-0.4,1.8,2.3,2.5,2.7,0.7c0.4-1.9,0.1-3.6-0.7-5.1
			c0.9-4.9,6.3-10.1,11-7.6c3.6,1.8,7.5,6.4,6.8,10.6c-0.3,1.8,2.4,2.5,2.7,0.7c0-0.1,0-0.2,0-0.4c0.6,0.2,1.2,0.1,1.5-0.6
			c1-2.3,4.1-2.3,5.8-0.7c1,1,1.5,2.3,1.8,3.7c0.1,0.2,0.6,4.4,0.2,4.3c-1.8-0.1-1.8,2.7,0,2.8C412,152.9,409,142.5,407.2,140.4z"/>
		<path id="XMLID_177_" class="st2" d="M361.2,170.1c-2.4-8.7-13.1-8.7-16.3-2c-4.5-4.6-14.6,0.5-10.2,8.3c0.9,1.6,3.3,0.2,2.4-1.4
			c-3.4-6,6.1-7.8,6.9-2.1c0.2,1.6,2.8,1.2,2.8-0.4c-0.2-7.4,9.7-9.1,11.7-1.7C359,172.6,361.7,171.9,361.2,170.1z"/>
		<path id="XMLID_192_" class="st2" d="M1028.6,150.3c-2-2.5-6.4-3.1-8.4-0.6c-0.9-4.5-5.1-8.9-9.5-9.5c-4.3-0.7-8,3.2-9.5,7.4
			c-1.9-1.5-4.6-2-7-0.8c-4.6,2.1-7.1,9-3.3,12.9c1.1,1.1,2.7-0.6,1.7-1.7c-2.4-2.5-0.9-6.6,1.5-8.5c2-1.5,5.1-1.2,6.5,0.6
			c-0.1,0.8-0.1,1.5,0,2.2c0.1,0.5,0.3,0.7,0.7,0.8c0,0.1,0,0.1,0,0.2c-0.3,1.5,1.9,2.1,2.3,0.6c0.4-1.6,0.1-3-0.6-4.3
			c0.8-4.2,5.3-8.5,9.3-6.4c3,1.6,6.3,5.4,5.7,9c-0.2,1.5,2,2.1,2.3,0.6c0-0.1,0-0.2,0-0.3c0.5,0.2,1,0.1,1.3-0.5
			c0.8-1.9,3.5-1.9,4.9-0.6c0.9,0.8,1.3,2,1.6,3.1c0,0.2,0.5,3.7,0.1,3.7c-1.5-0.1-1.5,2.2,0,2.4
			C1032.7,160.8,1030.1,152.1,1028.6,150.3z"/>
		<path id="XMLID_191_" class="st2" d="M989.9,175.3c-2-7.4-11.1-7.3-13.8-1.7c-3.8-3.9-12.3,0.4-8.6,7c0.7,1.3,2.8,0.1,2-1.2
			c-2.8-5,5.1-6.6,5.8-1.8c0.2,1.3,2.3,1,2.3-0.3c-0.1-6.3,8.2-7.7,9.9-1.5C988,177.4,990.3,176.8,989.9,175.3z"/>
		<path id="XMLID_176_" class="st0" d="M525.6,91.4c-1.4-3.6-3.6-6.2-7.6-6.5c-7.2-0.6-13.8,5.4-15.1,12.2c-2.5-2.9-5.5-5.8-8.9-7
			c-4.1-1.5-7.8,0.6-11,3.1c-6,4.5-6.9,14.5-1.9,20.3c1.2,1.4,3.2-0.6,2-2c-1.7-2-2.3-6.3-2.3-8.8c0-4.2,2.6-6.7,5.9-8.6
			c6.8-4.1,12.7,2.9,16.7,8c1,1.3,2.8-0.3,2.2-1.7c-0.4-5.6,3.4-10.6,8.8-12.3c4.1-1.2,7.3,0.6,8.8,4.5c0.9,2.4,3.4,7.5,1.9,9.9
			c-1,1.5,1.4,2.9,2.4,1.4C529.9,100.3,527.1,95.1,525.6,91.4z"/>
		<path id="XMLID_175_" class="st0" d="M594.5,83.7c-3.7-0.6-7.6,0.3-10.3,2.5c-0.6-8.2-3-18.9-11.2-18.2c-7,0.5-17,10.9-11.9,17.9
			c1.1,1.4,3.5,0,2.4-1.4c-4.5-6.2,9.3-18.5,14.4-11c2.9,4.3,3.6,10.7,3.7,16.1c-0.5,1-0.8,2.2-0.9,3.5c-0.1,1.5,1.8,1.7,2.5,0.7
			c0.6-0.1,1.1-0.5,1.1-1.3c0-0.7,0-1.5,0-2.3c1.5-2.4,4.4-3.6,7.4-3.8c2.8-0.1,9.9,2.4,5.9,6.1c-1.3,1.2,0.7,3.2,2,2
			C604.2,90.1,599.4,84.4,594.5,83.7z"/>
		<path id="XMLID_174_" class="st0" d="M644,82.7c-7.2,0-12.7,6-13.9,12.7c-0.3,1.8,2.4,2.5,2.7,0.7c1-5,4.3-9.5,9.5-10.4
			c5.7-1.1,11.3,3.4,11.6,9.2c0.1,1.8,2.9,1.8,2.8,0C656.3,88.2,650.8,82.7,644,82.7z"/>
		<path id="XMLID_173_" class="st0" d="M270.4,127.4c-1.1-2.6-4.3-4-6.8-4.8c-4.2-1.4-8.6-0.3-11.8,2.4
			c-0.2-6.4-10.9-12.4-16.2-12.5c-9.3-0.2-15,7.7-16.8,16c-3.8-3.6-10.2-3.7-14.1,1.1c-5.1,6.2-4.2,15.2,0.9,20.9
			c1.2,1.4,3.2-0.6,2-2c-3.2-3.7-4.4-8.7-2.8-13.4c1.1-3.2,3.6-6.4,7.2-6.6c2.9-0.2,5.1,1.6,6.3,4.1c0,0.2,0,0.4,0,0.6
			c0,0.6,0.2,0.9,0.6,1.1c0,0.1,0,0.1,0.1,0.2c0.3,1.8,3,1,2.7-0.7c-0.1-0.6-0.3-1.2-0.5-1.7c0.5-6.3,3.4-13.2,9.6-15.7
			c3.7-1.5,7.7-1.2,11.2,0.7c2.4,1.3,9,6.9,6.5,10.1c-0.6,0.8-0.3,1.8,0.4,2.2c0.2,1.1,1.9,1.8,2.6,0.5c2-3.5,5.9-5.7,10-4.9
			c2.4,0.4,4.8,1.4,6,3.6c1.4,2.6,0.4,5.4-0.6,8c-0.6,1.7,2.1,2.4,2.7,0.7C270.5,134.4,271.6,130.4,270.4,127.4z"/>
		<path id="XMLID_172_" class="st0" d="M847.7,119.9c-2.9-1.5-6.3-0.9-9.1,0.5c-1.5-5.9-7.3-10.1-13.7-8.7
			c-7.7,1.7-12.4,8.7-13.7,16.1c-3.1-3.4-7.2-4.8-11.5-0.9c-5.1,4.6-4.9,12.1-0.3,17c1.2,1.3,3.2-0.7,2-2c-3.3-3.5-3.7-8.7-0.4-12.3
			c1.5-1.6,3.9-3.1,6.1-1.9c1.7,0.9,2.8,2.8,3.7,4.4c0,0.1,0,0.1,0,0.2c0,1.8,2.8,1.8,2.8,0c-0.1-6.2,2.5-12.9,8.1-16.2
			c6.2-3.6,13.6-0.6,14.4,6.2c-1.1,1.4-1.3,3.4,0.7,4.4c1.3,0.6,2.4-0.8,2-1.8c0-0.1,0-0.1,0-0.2c0-0.3,0-0.7,0-1
			c1.1-0.6,3.2-1.6,3.3-1.7c2.6-0.6,4.7,0.4,6.5,2.2c2.6,2.6,6,8.3,1.5,10.9c-1.6,0.9-0.2,3.3,1.4,2.4
			C859.1,133.2,853.5,122.8,847.7,119.9z"/>
		<path id="XMLID_171_" class="st0" d="M861.3,168.2c-1.1-2.4-1.1-4.7-3.6-6.5c-2.9-2.2-6.9-2.5-10.4-2.5c-7.3,0-9.4,6.1-11.5,12.2
			c-0.6,1.7,2.1,2.4,2.7,0.7c1.9-5.3,3.6-10.4,10.4-10c3.6,0.2,7.3,0.5,9,4.4c0.5,1.1,0.6,2.2,1.1,3.4c-0.3,0.4-0.7,0.8-0.9,1.3
			c-0.8,1.6,1.6,3,2.4,1.4c1.8-3.7,11.8-2.5,9.7,2.2c-0.7,1.6,1.7,3.1,2.4,1.4C875.6,169.5,866.7,165.8,861.3,168.2z"/>
		<path id="XMLID_170_" class="st0" d="M274.5,162.4c-4.2-4.7-11-2.4-12.6,2.6c-3.2-3.3-7.4-6.1-11.9-3.3
			c-5.5,3.4-4.7,10.3-2.5,15.5c0.7,1.6,3.1,0.2,2.4-1.4c-1.7-3.8-2.6-10.7,2.8-12.2c3.8-1.1,7,2.9,9,5.5c0.5,1.6,3,0.9,2.7-0.9
			c-1-4.9,5-7.4,8.1-3.9C273.7,165.7,275.7,163.7,274.5,162.4z"/>
		<path id="XMLID_169_" class="st3" d="M393.6,54.5c-3.5-4.7-10.1-3.7-12.5,0.8c-2-3.5-6-6.8-10.1-5.7c-2.1,0.6-3.8,2.9-4.9,4.7
			c-1.3,2.1-1.8,4.2-0.7,6.5c0.5,1.1,2.2,0.1,1.6-1c-1-2,0.1-3.8,1.3-5.4c1.4-2,2.8-3.6,5.5-2.9c3,0.8,5.3,3.3,6.3,6
			c0,0.1,0.1,0.1,0.1,0.2c0,0.3-0.1,0.5-0.1,0.8c-0.1,1.2,1.8,1.2,1.9,0c0.2-5.2,6.7-7.4,9.8-3.1C392.7,56.5,394.3,55.5,393.6,54.5z
			"/>
		<path id="XMLID_168_" class="st3" d="M434.7,48.9c-1.5-1.5-3.1-1.2-4.3-0.2c-0.6-4.8-2.4-11-7.5-11.2c-5.2-0.2-9.3,4.2-9.7,9.2
			c-0.1,1.2,1.8,1.2,1.9,0c0.3-3.8,4.2-8.3,8.4-7.1c3.8,1.1,4.9,7.2,5.2,11c-0.1,0.1-0.1,0.2-0.2,0.3c-0.4,0.7,0.2,1.4,0.9,1.4
			c0.6,0.2,1.3-0.1,1.2-0.8c0-0.1,0-0.2,0-0.3c0.7-1,1.7-1.9,2.8-0.8c0.4,0.4,2.1,3.1,1.3,3.6c-1,0.6-0.1,2.3,1,1.6
			C437.9,54.1,436.1,50.4,434.7,48.9z"/>
		<path id="XMLID_167_" class="st3" d="M336,72.3c-0.9,0.2-1.7,0.7-2.2,1.4c-0.8-1.8-2.2-3.6-3.3-4.8c-2.1-2.4-5-2.5-7.8-1.3
			c-4.6,2-7.1,9-1.2,11.2c1.1,0.4,1.6-1.4,0.5-1.8c-2.3-0.9-2.5-3.7-1.3-5.5c0.9-1.3,2.4-2.2,4-2.6c2.3-0.6,4.1,0.7,5.3,2.5
			c1,1.4,3.1,4.1,2.6,5.9c-0.4,1.2,1.5,1.7,1.8,0.5c0,0,0-0.1,0-0.1c0.4-0.2,0.7-0.5,0.5-1.1c-0.3-1,0.3-2.2,1.3-2.4
			c1-0.2,2.1,0.7,2.1,1.7c0.1,1.2,2,1.2,1.9,0C340.2,73.8,338.3,72,336,72.3z"/>
		<path id="XMLID_239_" class="st3" d="M956.3,54.5c-3.5-4.7-10.1-3.7-12.5,0.8c-2-3.5-6-6.8-10.1-5.7c-2.1,0.6-3.8,2.9-4.9,4.7
			c-1.3,2.1-1.8,4.2-0.7,6.5c0.5,1.1,2.2,0.1,1.6-1c-1-2,0.1-3.8,1.3-5.4c1.4-2,2.8-3.6,5.5-2.9c3,0.8,5.3,3.3,6.3,6
			c0,0.1,0.1,0.1,0.1,0.2c0,0.3-0.1,0.5-0.1,0.8c-0.1,1.2,1.8,1.2,1.9,0c0.2-5.2,6.7-7.4,9.8-3.1C955.4,56.5,957.1,55.5,956.3,54.5z
			"/>
		<path id="XMLID_204_" class="st3" d="M997.5,48.9c-1.5-1.5-3.1-1.2-4.3-0.2c-0.6-4.8-2.4-11-7.5-11.2c-5.2-0.2-9.3,4.2-9.7,9.2
			c-0.1,1.2,1.8,1.2,1.9,0c0.3-3.8,4.2-8.3,8.4-7.1c3.8,1.1,4.9,7.2,5.2,11c-0.1,0.1-0.1,0.2-0.2,0.3c-0.4,0.7,0.2,1.4,0.9,1.4
			c0.6,0.2,1.3-0.1,1.2-0.8c0-0.1,0-0.2,0-0.3c0.7-1,1.7-1.9,2.8-0.8c0.4,0.4,2.1,3.1,1.3,3.6c-1,0.6-0.1,2.3,1,1.6
			C1000.6,54.1,998.9,50.4,997.5,48.9z"/>
		<path id="XMLID_200_" class="st3" d="M898.8,72.3c-0.9,0.2-1.7,0.7-2.2,1.4c-0.8-1.8-2.2-3.6-3.3-4.8c-2.1-2.4-5-2.5-7.8-1.3
			c-4.6,2-7.1,9-1.2,11.2c1.1,0.4,1.6-1.4,0.5-1.8c-2.3-0.9-2.5-3.7-1.3-5.5c0.9-1.3,2.4-2.2,4-2.6c2.3-0.6,4.1,0.7,5.3,2.5
			c1,1.4,3.1,4.1,2.6,5.9c-0.4,1.2,1.5,1.7,1.8,0.5c0,0,0-0.1,0-0.1c0.4-0.2,0.7-0.5,0.5-1.1c-0.3-1,0.3-2.2,1.3-2.4
			c1-0.2,2.1,0.7,2.1,1.7c0.1,1.2,2,1.2,1.9,0C902.9,73.8,901,72,898.8,72.3z"/>
		<path id="XMLID_166_" class="st3" d="M767.2,65.2c-6.5-3.9-13.9-0.7-18.6,4.5c-0.7-10.2-7.2-19.7-18.3-20.5
			c-10.6-0.7-19,8.8-16.6,19.1c0.3,1.4,2.4,0.8,2.1-0.6c-2.4-10.3,7.4-18.5,17.2-15.9c9.4,2.5,13.8,11.6,13.4,20.6
			c-0.2,0.3-0.3,0.5-0.5,0.8c-0.6,1.1,0.9,2.1,1.7,1.4c0.5-0.1,0.9-0.4,0.9-1c0-0.1,0-0.3,0-0.4c3.5-5.1,10-9.3,16.3-6.7
			c4.6,1.9,7.3,7.6,5.5,12.1c-0.3-1.2-2.3-0.6-2.1,0.7c0.1,0.9,0.3,1.8,0.4,2.6c0.1,0.8,1.3,1.1,1.8,0.5
			C775.2,77.1,773.1,68.8,767.2,65.2z"/>
		<path id="XMLID_59_" class="st3" d="M790.1,37.2c-3.7-2.7-8.9-3.1-12.2,0.4c-3.3,3.6-3.3,9.2-2.6,13.7c0.2,1.4,2.3,0.8,2.1-0.6
			c-0.8-5.4,0.2-15.3,8.3-13.3c7.4,1.8,7.4,9.9,9.2,15.7c-0.4-1.3-2.5-0.8-2.1,0.6c0.9,3.1,4.2,1.2,4.2-1.4
			C797.1,47.3,794.3,40.3,790.1,37.2z"/>
		<path id="XMLID_196_" class="st3" d="M131.3,65.2c-6.5-3.9-13.9-0.7-18.6,4.5C112,59.5,105.4,50,94.3,49.2
			c-10.6-0.7-19,8.8-16.6,19.1c0.3,1.4,2.4,0.8,2.1-0.6C77.4,57.5,87.2,49.3,97,51.9c9.4,2.5,13.8,11.6,13.4,20.6
			c-0.2,0.3-0.3,0.5-0.5,0.8c-0.6,1.1,0.9,2.1,1.7,1.4c0.5-0.1,0.9-0.4,0.9-1c0-0.1,0-0.3,0-0.4c3.5-5.1,10-9.3,16.3-6.7
			c4.6,1.9,7.3,7.6,5.5,12.1c-0.3-1.2-2.3-0.6-2.1,0.7c0.1,0.9,0.3,1.8,0.4,2.6c0.1,0.8,1.3,1.1,1.8,0.5
			C139.3,77.1,137.1,68.8,131.3,65.2z"/>
		<path id="XMLID_195_" class="st3" d="M154.2,37.2c-3.7-2.7-8.9-3.1-12.2,0.4c-3.3,3.6-3.3,9.2-2.6,13.7c0.2,1.4,2.3,0.8,2.1-0.6
			c-0.8-5.4,0.2-15.3,8.3-13.3c7.4,1.8,7.4,9.9,9.2,15.7c-0.4-1.3-2.5-0.8-2.1,0.6c0.9,3.1,4.2,1.2,4.2-1.4
			C161.2,47.3,158.3,40.3,154.2,37.2z"/>
		<path class="st0" d="M1036.7,204.4v-33.1c-61.6,4.1-123.3,4.9-185,3.1c-7.7-0.2-18.7-5.4-25.8-2.4c4.4-3.4,5.3-10.8,1-14.7
			c-4.3-3.9-12.1-2.4-14.7,2.8c2.1-3.5-1-8.4-5.1-9c-4-0.6-8,2.2-10,5.7c-1.7,3-2.4,6.4-2.8,9.8c0-3.8-2.6-7.6-6.3-8.7
			c-4.3-1.3-9.5,1.3-11,5.5c-1.5,4.3,0.8,9,4.7,11.2c-8.7,0.8-18.6-1.9-27.6-1.9c-34.1-0.3-68.2,0-102.3,0.8
			c-17,0.4-34.1,0.8-51.1,1.3c-8.5,0.3-17,0.5-25.6,0.8c-6.2,0.2-13.4-0.4-19,2.5c2.1-3,1.6-7.6-1.6-9.7c-4.1-2.6-10,1-12.1,4.7
			c2.3-6,4.4-13.3,0.6-18.4c-3.6-4.8-11.1-5.1-16.4-2.2c-5.3,2.9-8.9,8-12.3,13c2.2-5.5-0.5-12.3-5.7-15.2
			c-5.2-2.8-12.1-1.7-16.5,2.2c-4.4,4-6.2,10.3-5.2,16.1c-2.2-5.5-10-7.7-14.7-4.2c-4.7,3.5-4.9,11.6-0.3,15.3
			c-2.4-1.9-15.6,0.5-19,0.6c-6.9,0.2-13.8,0.4-20.7,0.6c-13.3,0.3-26.5,0.6-39.8,0.8c-24.2,0.4-48.3,0-72.5-0.6
			c3.1,0.1,5.4-3.6,4.5-6.5c-0.9-3-4.1-4.8-7.2-4.7c-3.1,0.1-5.9,1.8-8.1,4c2.4-1.8,2.5-5.8,0.5-8c-2-2.2-5.6-2.7-8.3-1.3
			c-2.7,1.4-4.5,4.2-4.9,7.2c-0.5-3.8-1.2-7.9-4.2-10.2c-3.8-2.9-9.7-1.2-12.9,2.5c-3.2,3.6-4.3,8.5-5.3,13.2
			c-0.1-3.8-4.5-6.9-8.1-5.7c-9.3,2.9,1,10.8-11,10.6c-10.1-0.2-20.6-1.3-30.7-1.9c-74.7-3.8-149.3-6.5-224.2-8.3v32.5H1036.7z"/>
	</g>
	<g>
		<path class="st0" d="M1852.9,101.5c4.3-4.9,11.8-6.6,18-4.9c-16.3-20.6,11-61.4,34.8-38.6c-7-6.7-12.4-14.9-15.9-24
			c-1.8-4.7-3-10.3-0.3-14.5c3.5-5.4,11.5-5.6,17.6-3.5c9.2,3.2,16.7,10.3,20.8,19.1c0.4-1,0.8-1.9,1.4-2.8c3.8-5.9,12.1-8.6,18.6-6
			c3.3,1.3,6,3.8,7.7,6.9c-1.1-7.5-1.4-15.1,1-22.2c1.3-3.9,3.6-7.7,7.3-9.7c6.5-3.5,15.1,0.5,18.9,6.9c3.8,6.4,3.7,14.3,2.7,21.7
			c-1,7.4-2.8,14.7-2.3,22.1c2.6-11.9,14.2-21.1,26.3-20.9c12.1,0.2,23.5,9.7,25.7,21.7c2.4-4.6,2.9-9.8,4.7-14.7
			c1.7-4.9,5.2-9.7,10.3-10.4c3.9-0.5,7.8,1.7,10.2,4.9c2.3,3.2,3.3,7.2,3.6,11.1c1,13.2-5.4,26.6-16.2,34.2
			c5.7-2.9,10.6-7.3,16.5-9.9c2.6-1.2,5.1-1.6,7.4-1.3v98c-1.9,1.2-4,2.3-6.2,3c-8.7,3-18.1,3.4-27.3,3.6c-30,0.5-59.5-4.5-89.3-5.2
			c-26.1-0.6-49.4-2.5-73.3-14.9c-9.4-4.8-18.5-10.9-23.9-20C1846.5,122,1845.9,109.4,1852.9,101.5z"/>
		<path class="st0" d="M1035.6,46.9c8.7-2.8,20.1-1.8,28.5,2.3c-8.9-4.5-13-16.9-8.1-25.5c4.2-7.3,14.5-10.4,22.2-6.9
			c10.8,4.9,9.1,15.4,9.1,25.5c0.1-9.5,8.9-17.9,18.4-17.7c7.4,0.2,14.1,5.6,16.6,12.4c-0.3-2.4-0.5-4.8-0.3-7.2
			c0.3-4.4,2-8.9,5.4-11.8c3.4-2.8,8.7-3.6,12.3-1c10.1,7.4-0.9,28.5-2.7,37.7c1.6-7.9,10.8-13.2,18.4-10.6c4.3,1.5,7.4,5.3,8.7,9.7
			c0.4-3,1-5.9,2-8.8c2.2-6,6.5-11.5,12.6-13.4c6.1-1.9,13.7,0.8,15.9,6.7c1.5,4.1,0.4,8.6-0.8,12.8c-1.9,7-3.9,14.1-5.8,21.1
			c3.2-6.2,12.7-21.2,20.3-22.1c10.2-1.2,16.1,12.5,15.9,20.6c-0.1,7.9-3.6,15.4-7.4,22.3c3.1-4.6,8.1-7.7,13.5-8.8
			c-1.9-20.7,20-45,39.6-26.2c-7-6.7-12.4-14.9-15.9-24c-1.8-4.7-3-10.3-0.3-14.5c3.5-5.4,11.5-5.6,17.6-3.5
			c9.2,3.2,16.7,10.3,20.8,19.1c0.4-1,0.8-1.9,1.4-2.8c3.8-5.9,12.1-8.6,18.6-6c3.3,1.3,6,3.8,7.7,6.9c-1.1-7.5-1.4-15.1,1-22.2
			c1.3-3.9,3.6-7.7,7.3-9.7c6.5-3.5,15.1,0.5,18.9,6.9c3.8,6.4,3.7,14.3,2.7,21.7c-1,7.4-2.8,14.7-2.3,22.1
			c2.6-11.9,14.2-21.1,26.3-20.9c12.1,0.2,23.5,9.7,25.7,21.7c2.4-4.6,2.9-9.8,4.7-14.7c1.7-4.9,5.2-9.7,10.3-10.4
			c3.9-0.5,7.8,1.7,10.2,4.9c2.3,3.2,3.3,7.2,3.6,11.1c1,13.2-5.4,26.6-16.2,34.2c5.7-2.9,10.6-7.3,16.5-9.9
			c5.9-2.6,13.6-2.8,17.9,1.9c4,4.4,3.5,11.3,1.7,16.9c-3.1,9.7-9.5,18.2-17.7,24.2c-8.1,5.9-18.5,6.1-24.7,13.6
			c-14.1,17.3-34.1,30.4-55.5,36.5c-36.3,10.2-76.5,7.5-110.2-9.8c-9.4-4.8-18.5-10.9-23.9-20c-0.7-1.1-1.3-2.3-1.8-3.6
			c-21.4,21.6-49.6,22.4-77.2,21.5l3,2.4c-1.8-0.1-3.6-0.2-5.4-0.4c-4.3-0.5-8.2-1.3-12-2.5c-29-1-58.2-0.2-87.4,0.7V46.9z
			 M1235.3,96.6c-0.6-0.8-1.2-1.6-1.7-2.4c-0.3,0.6-0.6,1.3-1,1.9C1233.5,96.2,1234.4,96.3,1235.3,96.6z"/>
		<path class="st1" d="M1035.6,112.5c8.1-4.3,19.3-0.5,25.4,6.8c6.6,7.9,8.9,18.4,10.9,28.6c-1.3-7.3-2.5-14.8-0.7-22
			s7.7-13.8,15.1-14.1c8.2-0.3,14.7,7,18.3,14.4c5.8,12.2,7.1,26.5,3.6,39.5c3.1-5.1,6.3-10.4,11.4-13.4c5.1-3.1,12.6-3,16.2,1.7
			c2.9,3.8,2.4,9.1,1,13.6c-2.1,6.7-6.1,12.8-11.2,17.6c5.6-2.7,11.9-3.8,18.1-3.2c1,0.1-8.6,14.9-9.8,16c-2.6,2.4-5.2,3.8-8,5.1
			h-90V112.5z"/>
		<path id="XMLID_00000103223271166510994320000009207530165514332582_" class="st0" d="M1613,116.7c9,1.7,19.1,1.6,26.2,5.6
			c19.8,11.1,34.3,26,58.1,28.7c24.7,2.7,62.2-5.6,80.1-24.1c4.1-4.3,24.1-42.8,23.3-42.9c-8.1-1.4-16.8,2.3-21.4,9.1
			c3.8-7,7.2-14.4,7.4-22.3c0.2-8.1-5.7-21.8-15.9-20.6c-7.6,0.9-17.2,15.9-20.3,22.1c1.9-7,3.9-14.1,5.8-21.1
			c1.2-4.2,2.3-8.7,0.8-12.8c-2.2-6-9.9-8.7-15.9-6.7c-6.1,1.9-10.4,7.5-12.6,13.4s-2.5,12.4-2.8,18.8c3.6-7.1-0.4-17.1-8-19.7
			c-7.6-2.6-16.8,2.7-18.4,10.6c1.8-9.2,12.7-30.3,2.7-37.7c-3.6-2.6-8.9-1.9-12.3,1s-5.1,7.4-5.4,11.8c-0.3,4.4,0.5,8.9,1.3,13.2
			c0.3-9.5-8.1-18.3-17.6-18.5c-9.5-0.2-18.2,8.3-18.4,17.7c0-10.1,1.7-20.5-9.1-25.5c-7.6-3.5-18-0.4-22.2,6.9
			c-5,8.7-0.9,21.1,8.1,25.5c-18.3-9.2-51.2-3-38.5,24.7c3.3,7.2,9.4,12.8,15.6,17.7c-6.8-1.6-11.4,8.4-8,14.5
			C1599.3,112.8,1605.8,115.3,1613,116.7z"/>
		<path id="XMLID_00000104667247325133859650000017188758692300911801_" class="st2" d="M1701.2,192.9c-7.4,3.7-16.1,5.3-22.7,10.2
			h-365.4c-5.6-9.8-6.6-22.4-0.8-32.1c9.4-15.6,33.6-19,47.5-7.6c-7.5-7.7-12.2-18-13-28.8c10.9-2.1,22.7,0.9,31.2,8
			c-11.1-10.2-18.4-25.1-17.4-40.1c1-15.1,11.3-29.6,25.7-33.8s32,3.7,36.7,18.1c-1.1-18,12.4-35.7,30-39.4s37.1,7.1,43.3,24
			c2.3-20.5,7.2-44.7,26.3-52.6c16.6-6.9,36.2,3.4,45.9,18.5c8.6,13.3,11.3,29.4,13.1,45.2c1.5-9.8,14.3-18,23.8-12.8
			c10,5.4,10.9,20.8,3.6,29.2c11.8-9,29.1-10.5,42-3c13.2,7.6,20.6,23.8,18.3,38.8c2.9-6.8,13.5-9.8,20.1-5.4
			c7.7,5.3,9.4,16.4,6.3,25.3s-9.7,15.8-16.2,22.5c4.5-4.5,9.3-9.2,15.3-11.2c6-2.1,13.8-0.7,17.1,4.7
			C1716.8,178.6,1709.5,188.8,1701.2,192.9z"/>
		<path id="XMLID_00000134930084911329965460000016573669665445797033_" class="st2" d="M1987.7,197.6c-4.4,2.2-9.3,3.5-13.7,5.5
			h-302.5c-3.3-7.4-3.5-16.3,0.8-23.3c7.6-12.7,27.3-15.4,38.5-6.2c-6.1-6.2-9.9-14.6-10.5-23.3c8.8-1.7,18.4,0.7,25.3,6.5
			c-9-8.2-14.9-20.4-14.1-32.6c0.8-12.2,9.1-24,20.9-27.4c11.7-3.4,26,3,29.8,14.7c-0.9-14.6,10.1-29,24.4-31.9
			c14.3-3,30.1,5.8,35.1,19.5c1.9-16.6,5.9-36.2,21.3-42.6c13.4-5.6,29.4,2.8,37.3,15c7,10.8,9.2,23.8,10.7,36.7
			c1.2-8,11.6-14.6,19.3-10.4c8.1,4.4,8.8,16.9,2.9,23.7c9.6-7.3,23.6-8.5,34.1-2.5c10.7,6.2,16.7,19.3,14.8,31.5
			c2.4-5.5,10.9-8,16.3-4.3c6.3,4.3,7.6,13.3,5.1,20.5c-2.5,7.2-7.9,12.8-13.2,18.3c3.7-3.7,7.5-7.4,12.4-9.1
			c4.9-1.7,11.2-0.6,13.9,3.8C2000.4,186,1994.5,194.2,1987.7,197.6z"/>
		<path id="XMLID_00000016036466907751808130000003629500934575549594_" class="st2" d="M1354.6,199.5c-2.9,1.5-6.1,2.5-9.1,3.6
			h-277.9c-2.4-6.4-2.3-13.8,1.2-19.7c6.9-11.5,24.7-14,34.9-5.6c-5.5-5.6-9-13.3-9.5-21.1c8-1.6,16.7,0.7,22.9,5.9
			c-8.2-7.5-13.5-18.4-12.8-29.5c0.8-11.1,8.3-21.8,18.9-24.9s23.5,2.7,27,13.3c-0.8-13.2,9.1-26.2,22.1-28.9
			c12.9-2.7,27.3,5.2,31.8,17.7c1.7-15.1,5.3-32.8,19.3-38.6c12.2-5,26.6,2.5,33.7,13.6c6.3,9.8,8.3,21.6,9.7,33.2
			c1.1-7.2,10.5-13.2,17.5-9.4c7.3,4,8,15.3,2.7,21.5c8.7-6.6,21.4-7.7,30.9-2.2c9.7,5.6,15.1,17.5,13.4,28.5
			c2.1-5,9.9-7.2,14.8-3.9c5.7,3.9,6.9,12.1,4.6,18.6c-2.2,6.5-7.2,11.6-11.9,16.6c3.3-3.3,6.8-6.7,11.2-8.3
			c4.4-1.5,10.1-0.5,12.5,3.5C1366,189,1360.6,196.4,1354.6,199.5z"/>
		<path id="XMLID_00000158000366681510861950000011840344417818323609_" class="st1" d="M1505.1,197.6c-1,2-2,3.8-3.1,5.5H1283
			c-1.6-1-3.2-2.1-4.6-3.4c-5.4-5-8.2-13.5-4.6-19.9c2.8-4.9,8.8-7.4,14.5-7.4c5.7,0,11.1,2.2,16.2,4.7
			c-8.2-5.9-14.8-14.6-16.3-24.7c-1.4-10,3.3-21.2,12.4-25.5c9.1-4.4,21.9,0.1,24.9,9.8c-1.9-7.8-3.7-15.8-3.3-23.8
			c0.4-8,3.4-16.3,9.7-21.3c9.4-7.4,23.3-5.7,33.8,0.1c14.6,8.1,25,23.4,27.1,40c2.7-8.1-0.3-16.9-0.7-25.5
			c-0.3-8.6,4.7-19.1,13.2-18.5c5.5,0.4,9.6,5.3,12.5,9.9c10.3,16.2,16.9,34.7,19.1,53.8c12.2-11.7,12.5-35.3,28.7-40.2
			c11.3-3.4,23.2,6.3,26.6,17.7c3.4,11.3,0.6,23.5-2.2,35c2.5-6.4,5.2-13.1,10.3-17.7c5.1-4.6,13.4-6.5,18.9-2.3
			c6.6,5.1,5.6,15.4,2.4,23.1C1517.3,177.7,1510.1,187.3,1505.1,197.6z"/>
		<path class="st1" d="M1909.4,184.5c2.2-4,7-6,11.6-5.9c4.5,0,8.9,1.8,13,3.8c-6.6-4.7-11.9-11.7-13-19.7c-1.1-8,2.6-16.9,9.9-20.4
			c7.3-3.5,17.6,0.1,19.9,7.9c-1.5-6.3-3-12.6-2.7-19.1c0.3-6.4,2.7-13.1,7.8-17.1c7.5-6,18.7-4.5,27.1,0.1
			c11.7,6.5,20,18.8,21.7,32c2.2-6.5-0.3-13.6-0.5-20.4c-0.3-6.9,3.7-15.3,10.6-14.8c4.4,0.3,7.7,4.2,10,7.9
			c8.3,12.9,13.6,27.8,15.3,43.1c9.8-9.3,10-28.3,23-32.1c3-0.9,6-0.6,8.9,0.4v73h-155c-1.3-0.8-2.5-1.7-3.7-2.7
			C1908.8,196.4,1906.5,189.6,1909.4,184.5z"/>
		<path id="XMLID_00000148653244105967473980000007001009768652547763_" class="st1" d="M1762.1,203.1h-159.4
			c-0.2-0.1-0.4-0.2-0.5-0.3c-7.9-5.1-14.4-12.8-16.4-22c-2-9.2,1.4-19.7,9.4-24.7c5.6-3.5,13.3-3.4,18.9-0.1
			c-5.4-8.7-3.9-21.9,4.8-28c9.6-6.7,24.4-2.1,29.7,7.9c-2.1-5.9-4-11.9-4.2-18.1c-0.3-7.8,2.3-16.1,8.5-20.7
			c9.7-7.4,24.7-2.8,32.6,6.6c7.9,9.3,10.5,21.9,12.9,33.9c-1.5-8.6-3-17.6-0.8-26.1c2.2-8.5,9.2-16.4,17.9-16.8
			c9.8-0.4,17.5,8.3,21.7,17.1c6.9,14.5,8.5,31.4,4.2,46.9c3.6-6,7.5-12.3,13.5-15.9c6-3.6,14.9-3.6,19.2,2
			c3.4,4.5,2.8,10.8,1.2,16.2c-2.5,8-7.2,15.2-13.4,20.9c6.6-3.2,14.1-4.5,21.5-3.8c1.1,0.1-10.2,17.6-11.7,19.1
			C1768.6,199.9,1765.4,201.6,1762.1,203.1z"/>
		<path id="XMLID_00000079486802977076897390000008274460517900847283_" class="st2" d="M1354.4,143.3c2-1.5,4.5-1.9,6.9-1.3
			c-1.6-8.5-0.5-19,10.4-18.4c7.4,0.4,13.1,5.5,15.7,12c1.9-3.9,5.8-6.4,10.8-5.8c7.2,1,10,7.8,9.6,14.4c-0.1,1.8-2.9,1.8-2.8,0
			c0.2-3.5-0.1-8.7-4-10.5c-6.1-2.7-12.2,0.8-12.2,7.8c0,1.8-2.6,1.8-2.8,0c-0.6-6.4-4.4-11.9-10.5-14.2c-12.2-4.6-13,8.4-11,16.3
			c0.3,0.3,0.7,0.6,0.9,1c1.1,1.4-0.9,3.4-2,2c-0.1-0.1-0.2-0.3-0.4-0.4c-0.4-0.1-0.8-0.3-1-0.8c-1.7-1.1-4.1-1.3-5.9,0
			c-2.6,1.8-2.8,5.4-1.3,8c0.9,1.6-1.5,3-2.4,1.4C1350.4,151.1,1350.9,146,1354.4,143.3z"/>
		<path id="XMLID_00000018216854100243801020000000134875293899368090_" class="st2" d="M1443.2,146.1c6.2-1.4,8.7,4.1,9.6,9.4
			c2.7-4.6,6.8-9.8,11.9-6.5c6.1,3.9,3.9,13-0.4,17.2c-1.3,1.3-3.3-0.7-2-2c1.7-1.7,2.9-3.5,3.1-6c0.3-3.2-0.8-9.9-7-5.9
			c-2.5,1.6-4.2,6.1-5.5,8.7c-0.7,1.2-2.6,0.6-2.6-0.7c0-3.6,0.3-9.3-3.7-10.9c-6.2-2.6-8,7.7-6.3,10.5c0.9,1.5-1.5,3-2.4,1.4
			C1435.3,156.8,1437.5,147.4,1443.2,146.1z"/>
		<path id="XMLID_00000058556709727488725840000005758167581153145992_" class="st2" d="M1362.8,173.7c4.9,1.5,11,7.5,9.1,13.1
			c-0.6,1.7-3.3,1-2.7-0.7c1.3-3.8-3.5-8.3-6.8-9.5c-4-1.4-7.8,1.4-8.4,5.4c-0.3,1.8-3,1-2.7-0.7
			C1352.1,175.9,1357.6,172.1,1362.8,173.7z"/>
		<path id="XMLID_00000150786030818399672380000003370355744231556532_" class="st2" d="M1664.8,140.4c2.4-2.9,7.6-3.7,10-0.7
			c1.1-5.3,6-10.5,11.2-11.3c5.1-0.8,9.5,3.8,11.3,8.8c2.3-1.7,5.5-2.3,8.3-1c5.4,2.5,8.4,10.7,3.9,15.4c-1.3,1.3-3.2-0.7-2-2
			c2.8-2.9,1-7.9-1.8-10.1c-2.3-1.8-6-1.4-7.7,0.7c0.1,0.9,0.1,1.8,0,2.6c-0.1,0.5-0.4,0.8-0.8,0.9c0,0.1,0,0.1,0,0.2
			c0.4,1.8-2.3,2.5-2.7,0.7c-0.4-1.9-0.1-3.6,0.7-5.1c-0.9-4.9-6.3-10.1-11-7.6c-3.6,1.8-7.5,6.4-6.8,10.6c0.3,1.8-2.4,2.5-2.7,0.7
			c0-0.1,0-0.2,0-0.4c-0.6,0.2-1.2,0.1-1.5-0.6c-1-2.3-4.1-2.3-5.8-0.7c-1,1-1.5,2.3-1.8,3.7c-0.1,0.2-0.6,4.4-0.2,4.3
			c1.8-0.1,1.8,2.7,0,2.8C1660,152.9,1663,142.5,1664.8,140.4z"/>
		<path id="XMLID_00000176761135876849295340000012838391521605038013_" class="st2" d="M1710.8,170.1c2.4-8.7,13.1-8.7,16.3-2
			c4.5-4.6,14.6,0.5,10.2,8.3c-0.9,1.6-3.3,0.2-2.4-1.4c3.4-6-6.1-7.8-6.9-2.1c-0.2,1.6-2.8,1.2-2.8-0.4c0.2-7.4-9.7-9.1-11.7-1.7
			C1713,172.6,1710.3,171.9,1710.8,170.1z"/>
		<path id="XMLID_00000018948587266730854530000001485631755060853150_" class="st2" d="M1043.7,150.3c2-2.5,6.4-3.1,8.4-0.6
			c0.9-4.5,5.1-8.9,9.4-9.5c4.3-0.7,8,3.2,9.5,7.4c1.9-1.5,4.6-2,7-0.8c4.6,2.1,7.1,9,3.3,12.9c-1.1,1.1-2.7-0.6-1.7-1.7
			c2.4-2.5,0.9-6.6-1.5-8.5c-2-1.5-5.1-1.2-6.5,0.6c0.1,0.8,0.1,1.5,0,2.2c-0.1,0.5-0.3,0.7-0.7,0.8c0,0.1,0,0.1,0,0.2
			c0.3,1.5-1.9,2.1-2.3,0.6c-0.4-1.6-0.1-3,0.6-4.3c-0.8-4.2-5.3-8.5-9.3-6.4c-3,1.6-6.3,5.4-5.7,9c0.2,1.5-2,2.1-2.3,0.6
			c0-0.1,0-0.2,0-0.3c-0.5,0.2-1,0.1-1.3-0.5c-0.8-1.9-3.5-1.9-4.9-0.6c-0.9,0.8-1.3,2-1.6,3.1c0,0.2-0.5,3.7-0.1,3.7
			c1.5-0.1,1.5,2.2,0,2.4C1039.7,160.8,1042.2,152.1,1043.7,150.3z"/>
		<path id="XMLID_00000181770478482298359580000000371798047925235866_" class="st2" d="M1082.4,175.3c2-7.4,11.1-7.3,13.8-1.7
			c3.8-3.9,12.3,0.4,8.6,7c-0.7,1.3-2.8,0.1-2-1.2c2.8-5-5.1-6.6-5.8-1.8c-0.2,1.3-2.3,1-2.3-0.3c0.1-6.3-8.2-7.7-9.9-1.5
			C1084.3,177.4,1082,176.8,1082.4,175.3z"/>
		<path id="XMLID_00000127754780248742512630000009695199465646472109_" class="st0" d="M1546.4,91.4c1.4-3.6,3.5-6.2,7.6-6.5
			c7.2-0.6,13.8,5.4,15.1,12.2c2.5-2.9,5.5-5.8,8.9-7c4.1-1.5,7.8,0.6,11,3.1c6,4.5,6.9,14.5,1.9,20.3c-1.2,1.4-3.1-0.6-2-2
			c1.7-2,2.3-6.3,2.3-8.8c0-4.2-2.6-6.7-5.9-8.6c-6.8-4.1-12.7,2.9-16.7,8c-1,1.3-2.8-0.3-2.2-1.7c0.4-5.6-3.4-10.6-8.8-12.3
			c-4.1-1.2-7.3,0.6-8.8,4.5c-0.9,2.4-3.4,7.5-1.9,9.9c1,1.5-1.4,2.9-2.4,1.4C1542.2,100.3,1545,95.1,1546.4,91.4z"/>
		<path id="XMLID_00000063594604979287545460000001222716918856504751_" class="st0" d="M1477.6,83.7c3.7-0.6,7.6,0.3,10.3,2.5
			c0.6-8.2,3-18.9,11.2-18.2c7,0.5,17,10.9,11.9,17.9c-1.1,1.4-3.5,0-2.4-1.4c4.5-6.2-9.3-18.5-14.4-11c-2.9,4.3-3.6,10.7-3.7,16.1
			c0.5,1,0.8,2.2,0.9,3.5c0.1,1.5-1.8,1.7-2.5,0.7c-0.6-0.1-1.1-0.5-1.1-1.3c0-0.7,0-1.5,0-2.3c-1.5-2.4-4.4-3.6-7.4-3.8
			c-2.8-0.1-9.9,2.4-5.9,6.1c1.3,1.2-0.7,3.2-2,2C1467.9,90.1,1472.7,84.4,1477.6,83.7z"/>
		<path id="XMLID_00000085950905567185935980000011454387303875477139_" class="st0" d="M1428.2,82.7c7.2,0,12.7,6,13.9,12.7
			c0.3,1.8-2.4,2.5-2.7,0.7c-1-5-4.3-9.5-9.5-10.4c-5.7-1.1-11.3,3.4-11.6,9.2c-0.1,1.8-2.9,1.8-2.8,0
			C1415.8,88.2,1421.4,82.7,1428.2,82.7z"/>
		<path id="XMLID_00000111183347157532572550000011082249605981380241_" class="st0" d="M1801.6,127.4c1.1-2.6,4.3-4,6.8-4.8
			c4.2-1.4,8.6-0.3,11.8,2.4c0.2-6.4,10.9-12.4,16.2-12.5c9.3-0.2,15,7.7,16.8,16c3.8-3.6,10.2-3.7,14.1,1.1
			c5.1,6.2,4.1,15.2-0.9,20.9c-1.2,1.4-3.2-0.6-2-2c3.2-3.7,4.4-8.7,2.8-13.4c-1.1-3.2-3.6-6.4-7.2-6.6c-2.9-0.2-5.1,1.6-6.3,4.1
			c0,0.2,0,0.4,0,0.6c0,0.6-0.2,0.9-0.6,1.1c0,0.1,0,0.1-0.1,0.2c-0.3,1.8-3,1-2.7-0.7c0.1-0.6,0.3-1.2,0.5-1.7
			c-0.5-6.3-3.4-13.2-9.6-15.7c-3.7-1.5-7.7-1.2-11.2,0.7c-2.4,1.3-9,6.9-6.5,10.1c0.6,0.8,0.3,1.8-0.4,2.2
			c-0.2,1.1-1.9,1.8-2.6,0.5c-2-3.5-5.9-5.7-10-4.9c-2.4,0.4-4.8,1.4-6,3.6c-1.4,2.6-0.4,5.4,0.6,8c0.6,1.7-2.1,2.4-2.7,0.7
			C1801.5,134.4,1800.3,130.4,1801.6,127.4z"/>
		<path id="XMLID_00000052804385784937548820000000872340908447935401_" class="st0" d="M1224.5,119.9c2.9-1.5,6.3-0.9,9.1,0.5
			c1.5-5.9,7.3-10.1,13.7-8.7c7.7,1.7,12.4,8.7,13.7,16.1c3.1-3.4,7.2-4.8,11.5-0.9c5.1,4.6,4.9,12.1,0.3,17c-1.2,1.3-3.2-0.7-2-2
			c3.3-3.5,3.7-8.7,0.4-12.3c-1.5-1.6-3.9-3.1-6.1-1.9c-1.7,0.9-2.8,2.8-3.7,4.4c0,0.1,0,0.1,0,0.2c0,1.8-2.8,1.8-2.8,0
			c0.1-6.2-2.5-12.9-8.1-16.2c-6.2-3.6-13.6-0.6-14.4,6.2c1.1,1.4,1.3,3.4-0.7,4.4c-1.3,0.6-2.4-0.8-2-1.8c0-0.1,0-0.1,0-0.2
			c0-0.3,0-0.7,0-1c-1.1-0.6-3.2-1.6-3.3-1.7c-2.6-0.6-4.7,0.4-6.5,2.2c-2.6,2.6-5.9,8.3-1.5,10.9c1.6,0.9,0.2,3.3-1.4,2.4
			C1213.2,133.2,1218.7,122.8,1224.5,119.9z"/>
		<path id="XMLID_00000070818064386795678180000009255776041611857582_" class="st0" d="M1211,168.2c1.1-2.4,1.1-4.7,3.6-6.5
			c2.9-2.2,6.9-2.5,10.4-2.5c7.3,0,9.4,6.1,11.5,12.2c0.6,1.7-2.1,2.4-2.7,0.7c-1.9-5.3-3.6-10.4-10.4-10c-3.6,0.2-7.3,0.5-9,4.4
			c-0.5,1.1-0.6,2.2-1.1,3.4c0.3,0.4,0.6,0.8,0.9,1.3c0.8,1.6-1.6,3-2.4,1.4c-1.8-3.7-11.8-2.5-9.7,2.2c0.7,1.6-1.7,3.1-2.4,1.4
			C1196.6,169.5,1205.5,165.8,1211,168.2z"/>
		<path id="XMLID_00000176001350003009025970000009653804347119418802_" class="st0" d="M1797.4,162.4c4.2-4.7,11-2.4,12.6,2.6
			c3.2-3.3,7.4-6.1,11.9-3.3c5.5,3.4,4.7,10.3,2.5,15.5c-0.7,1.6-3.1,0.2-2.4-1.4c1.7-3.8,2.6-10.7-2.7-12.2c-3.8-1.1-7,2.9-9,5.5
			c-0.5,1.6-3,0.9-2.7-0.9c1-4.9-5-7.4-8.1-3.9C1798.2,165.7,1796.2,163.7,1797.4,162.4z"/>
		<path id="XMLID_00000127762787829877547440000010816696886054848651_" class="st3" d="M1678.4,54.5c3.5-4.7,10.1-3.7,12.5,0.8
			c2-3.5,6-6.8,10.1-5.7c2.1,0.6,3.8,2.9,4.9,4.7c1.3,2.1,1.8,4.2,0.7,6.5c-0.5,1.1-2.2,0.1-1.6-1c1-2-0.1-3.8-1.3-5.4
			c-1.4-2-2.8-3.6-5.5-2.9c-3,0.8-5.3,3.3-6.3,6c0,0.1-0.1,0.1-0.1,0.2c0,0.3,0.1,0.5,0.1,0.8c0.1,1.2-1.8,1.2-1.9,0
			c-0.2-5.2-6.6-7.4-9.8-3.1C1679.3,56.5,1677.7,55.5,1678.4,54.5z"/>
		<path id="XMLID_00000159453356152514909110000014263529627200954784_" class="st3" d="M1637.3,48.9c1.5-1.5,3.1-1.2,4.3-0.2
			c0.6-4.8,2.4-11,7.5-11.2c5.2-0.2,9.3,4.2,9.7,9.2c0.1,1.2-1.8,1.2-1.9,0c-0.3-3.8-4.2-8.3-8.4-7.1c-3.8,1.1-4.9,7.2-5.2,11
			c0.1,0.1,0.1,0.2,0.2,0.3c0.4,0.7-0.2,1.4-0.9,1.4c-0.6,0.2-1.3-0.1-1.2-0.8c0-0.1,0-0.2,0-0.3c-0.7-1-1.7-1.9-2.8-0.8
			c-0.4,0.4-2.1,3.1-1.3,3.6c1,0.6,0.1,2.3-1,1.6C1634.1,54.1,1635.9,50.4,1637.3,48.9z"/>
		<path id="XMLID_00000001662469044017857360000006409155465184226191_" class="st3" d="M1735.9,72.3c0.9,0.2,1.7,0.7,2.2,1.4
			c0.8-1.8,2.2-3.6,3.3-4.8c2.1-2.4,5-2.5,7.8-1.3c4.6,2,7.1,9,1.2,11.2c-1.1,0.4-1.6-1.4-0.5-1.8c2.3-0.9,2.5-3.7,1.3-5.5
			c-0.9-1.3-2.4-2.2-4-2.6c-2.3-0.6-4.1,0.7-5.3,2.5c-1,1.4-3.1,4.1-2.6,5.9c0.4,1.2-1.5,1.7-1.8,0.5c0,0,0-0.1,0-0.1
			c-0.4-0.2-0.7-0.5-0.5-1.1c0.3-1-0.3-2.2-1.3-2.4c-1-0.2-2.1,0.7-2.1,1.7c-0.1,1.2-2,1.2-1.9,0C1731.8,73.8,1733.7,72,1735.9,72.3
			z"/>
		<path id="XMLID_00000054987269854302777540000012041369805502196875_" class="st3" d="M1116,54.5c3.5-4.7,10.1-3.7,12.5,0.8
			c2-3.5,6-6.8,10.1-5.7c2.1,0.6,3.8,2.9,4.9,4.7c1.3,2.1,1.8,4.2,0.7,6.5c-0.5,1.1-2.2,0.1-1.6-1c1-2-0.1-3.8-1.3-5.4
			c-1.4-2-2.8-3.6-5.5-2.9c-3,0.8-5.3,3.3-6.3,6c0,0.1-0.1,0.1-0.1,0.2c0,0.3,0.1,0.5,0.1,0.8c0.1,1.2-1.8,1.2-1.9,0
			c-0.2-5.2-6.6-7.4-9.8-3.1C1116.9,56.5,1115.2,55.5,1116,54.5z"/>
		<path id="XMLID_00000064324673856968742330000013232082990447642789_" class="st3" d="M1074.9,48.9c1.5-1.5,3.1-1.2,4.3-0.2
			c0.6-4.8,2.4-11,7.5-11.2c5.2-0.2,9.3,4.2,9.7,9.2c0.1,1.2-1.8,1.2-1.9,0c-0.3-3.8-4.2-8.3-8.4-7.1c-3.8,1.1-4.9,7.2-5.2,11
			c0.1,0.1,0.1,0.2,0.2,0.3c0.4,0.7-0.2,1.4-0.9,1.4c-0.6,0.2-1.3-0.1-1.2-0.8c0-0.1,0-0.2,0-0.3c-0.7-1-1.7-1.9-2.8-0.8
			c-0.4,0.4-2.1,3.1-1.3,3.6c1,0.6,0.1,2.3-1,1.6C1071.7,54.1,1073.4,50.4,1074.9,48.9z"/>
		<path id="XMLID_00000082363586270337622030000000510631304906590899_" class="st3" d="M1173.5,72.3c0.9,0.2,1.7,0.7,2.2,1.4
			c0.8-1.8,2.2-3.6,3.3-4.8c2.1-2.4,5-2.5,7.8-1.3c4.6,2,7.1,9,1.2,11.2c-1.1,0.4-1.6-1.4-0.5-1.8c2.3-0.9,2.5-3.7,1.3-5.5
			c-0.9-1.3-2.4-2.2-4-2.6c-2.3-0.6-4.1,0.7-5.3,2.5c-1,1.4-3.1,4.1-2.6,5.9c0.4,1.2-1.5,1.7-1.8,0.5c0,0,0-0.1,0-0.1
			c-0.4-0.2-0.7-0.5-0.5-1.1c0.3-1-0.3-2.2-1.3-2.4c-1-0.2-2.1,0.7-2.1,1.7c-0.1,1.2-2,1.2-1.9,0C1169.4,73.8,1171.3,72,1173.5,72.3
			z"/>
		<path id="XMLID_00000054980785602294358580000009045074937238095503_" class="st3" d="M1305,65.2c6.4-3.9,13.9-0.7,18.6,4.5
			c0.7-10.2,7.2-19.7,18.3-20.5c10.6-0.7,19,8.8,16.6,19.1c-0.3,1.4-2.4,0.8-2.1-0.6c2.4-10.3-7.4-18.5-17.2-15.9
			c-9.4,2.5-13.8,11.6-13.4,20.6c0.2,0.3,0.3,0.5,0.5,0.8c0.6,1.1-0.9,2.1-1.7,1.4c-0.5-0.1-0.9-0.4-0.9-1c0-0.1,0-0.3,0-0.4
			c-3.5-5.1-10-9.3-16.3-6.7c-4.6,1.9-7.3,7.6-5.5,12.1c0.3-1.2,2.3-0.6,2.1,0.7c-0.1,0.9-0.3,1.8-0.4,2.6c-0.1,0.8-1.3,1.1-1.8,0.5
			C1297,77.1,1299.1,68.8,1305,65.2z"/>
		<path id="XMLID_00000084496520408124531550000006203573780486931338_" class="st3" d="M1282.1,37.2c3.7-2.7,8.9-3.1,12.1,0.4
			c3.3,3.6,3.3,9.2,2.6,13.7c-0.2,1.4-2.3,0.8-2.1-0.6c0.8-5.4-0.2-15.3-8.3-13.3c-7.3,1.8-7.4,9.9-9.2,15.7
			c0.4-1.3,2.5-0.8,2.1,0.6c-0.9,3.1-4.2,1.2-4.2-1.4C1275.1,47.3,1277.9,40.3,1282.1,37.2z"/>
		<path id="XMLID_00000143611098168337162910000014629867255516805018_" class="st3" d="M1940.6,65.2c6.4-3.9,13.9-0.7,18.6,4.5
			c0.7-10.2,7.2-19.7,18.3-20.5c10.6-0.7,19,8.8,16.6,19.1c-0.3,1.4-2.4,0.8-2.1-0.6c2.4-10.3-7.4-18.5-17.2-15.9
			c-9.4,2.5-13.8,11.6-13.4,20.6c0.2,0.3,0.3,0.5,0.5,0.8c0.6,1.1-0.9,2.1-1.7,1.4c-0.5-0.1-0.9-0.4-0.9-1c0-0.1,0-0.3,0-0.4
			c-3.5-5.1-10-9.3-16.3-6.7c-4.6,1.9-7.3,7.6-5.5,12.1c0.3-1.2,2.3-0.6,2.1,0.7c-0.1,0.9-0.3,1.8-0.4,2.6c-0.1,0.8-1.3,1.1-1.8,0.5
			C1932.6,77.1,1934.8,68.8,1940.6,65.2z"/>
		<path id="XMLID_00000173839707439974969540000012031555587848382128_" class="st3" d="M1917.7,37.2c3.7-2.7,8.9-3.1,12.1,0.4
			c3.3,3.6,3.3,9.2,2.6,13.7c-0.2,1.4-2.3,0.8-2.1-0.6c0.8-5.4-0.2-15.3-8.3-13.3c-7.3,1.8-7.4,9.9-9.2,15.7
			c0.4-1.3,2.5-0.8,2.1,0.6c-0.9,3.1-4.2,1.2-4.2-1.4C1910.7,47.3,1913.6,40.3,1917.7,37.2z"/>
		<path class="st0" d="M1035.6,204.4v-33.1c61.5,4.1,123.3,4.9,184.9,3.1c7.7-0.2,18.7-5.4,25.8-2.4c-4.4-3.4-5.3-10.8-1-14.7
			c4.3-3.9,12.1-2.4,14.6,2.8c-2.1-3.5,1-8.4,5.1-9c4-0.6,8,2.2,10,5.7c1.7,3,2.3,6.4,2.8,9.8c0-3.8,2.6-7.6,6.3-8.7
			c4.3-1.3,9.5,1.3,11,5.5c1.5,4.3-0.8,9-4.7,11.2c8.7,0.8,18.6-1.9,27.6-1.9c34.1-0.3,68.2,0,102.3,0.8c17,0.4,34.1,0.8,51.1,1.3
			c8.5,0.3,17,0.5,25.5,0.8c6.2,0.2,13.4-0.4,19,2.5c-2.1-3-1.6-7.6,1.6-9.7c4.1-2.6,10,1,12.1,4.7c-2.3-6-4.4-13.3-0.6-18.4
			c3.6-4.8,11.1-5.1,16.4-2.2c5.3,2.9,8.9,8,12.3,13c-2.2-5.5,0.5-12.3,5.7-15.2c5.2-2.8,12.1-1.7,16.4,2.2c4.4,4,6.2,10.3,5.2,16.1
			c2.2-5.5,10-7.7,14.7-4.2c4.7,3.5,4.9,11.6,0.3,15.3c2.4-1.9,15.6,0.5,19,0.6c6.9,0.2,13.8,0.4,20.7,0.6
			c13.3,0.3,26.5,0.6,39.8,0.8c24.2,0.4,48.3,0,72.4-0.6c-3.1,0.1-5.4-3.6-4.5-6.5c0.9-3,4.1-4.8,7.2-4.7c3.1,0.1,5.9,1.8,8.1,4
			c-2.4-1.8-2.5-5.8-0.5-8c2-2.2,5.6-2.7,8.3-1.3c2.7,1.4,4.5,4.2,4.9,7.2c0.5-3.8,1.2-7.9,4.2-10.2c3.8-2.9,9.7-1.2,12.9,2.5
			c3.2,3.6,4.3,8.5,5.3,13.2c0.1-3.8,4.5-6.9,8.1-5.7c9.3,2.9-1,10.8,11,10.6c10.1-0.2,20.5-1.3,30.7-1.9
			c74.6-3.8,149.2-6.5,224.1-8.3v32.5H1035.6z"/>
	</g>
</g>
</svg>
