<?xml version="1.0" encoding="utf-8"?>
<!-- Generator: Adobe Illustrator 27.9.4, SVG Export Plug-In . SVG Version: 9.03 Build 54784)  -->
<svg version="1.1" id="Calque_1" xmlns="http://www.w3.org/2000/svg" xmlns:xlink="http://www.w3.org/1999/xlink" x="0px" y="0px"
	 viewBox="0 0 1570 354.4" style="enable-background:new 0 0 1570 354.4;" xml:space="preserve">
<style type="text/css">
	.st0{fill:#86A8AC;}
</style>
<path class="st0" d="M1471.6,6.3C1471.6,6.3,1471.6,6.3,1471.6,6.3c-29.2,5.5-58.2,15.1-88.4,12.6c-20.8-1.7-39.7-9.2-60.4-11.7
	c-35.7-4.3-71.6,6.7-107.8,6.1c-30.6-0.5-60-9.2-90.6-8.7c-31.9,0.5-62.2,11-94.1,10.9c-30.3-0.1-59.7-9.6-89.9-7.8
	c-18.8,1.1-36.4,6.6-54.9,8.8c-31.2,3.6-62.8-2.2-94.2-4.9c-2.1-0.2-4.2-0.3-6.4-0.5c-2.1,0.2-4.2,0.3-6.4,0.5
	c-31.4,2.7-63,8.5-94.2,4.9c-18.6-2.2-36.2-7.6-54.9-8.8c-30.2-1.8-59.6,7.8-89.9,7.8C507.7,15.5,477.5,5,445.6,4.6
	c-30.6-0.5-60,8.3-90.6,8.7c-36.2,0.6-72.1-10.4-107.8-6.1c-20.7,2.5-39.6,9.9-60.4,11.7c-30.1,2.5-59.1-7.1-88.4-12.6c0,0,0,0,0,0
	C79.6,2.8,34.1-2.4,0,1.3v157.1v196h785h785v-196V1.3C1535.9-2.4,1490.4,2.8,1471.6,6.3z"/>
</svg>
