<?xml version="1.0" encoding="utf-8"?>
<!-- Generator: Adobe Illustrator 27.9.4, SVG Export Plug-In . SVG Version: 9.03 Build 54784)  -->
<svg version="1.1" id="Calque_1" xmlns="http://www.w3.org/2000/svg" xmlns:xlink="http://www.w3.org/1999/xlink" x="0px" y="0px"
	 viewBox="0 0 455.4 699.2" style="enable-background:new 0 0 455.4 699.2;" xml:space="preserve">
<style type="text/css">
	.st0{fill:#B97D16;}
	.st1{fill:#456521;}
	.st2{fill:#3C2A34;}
	.st3{fill:#83B044;}
</style>
<path class="st0" d="M250,699.2c-1-51.5-10-507.6-13.9-533.6c0,0,1.1-6.5-10.6,1.9c0,0-7.4,389.3-0.2,531.7H250z"/>
<g>
	<path class="st1" d="M222.2,168.2c0,0-72.8-60.8-144.8,2.1l22.3,2.8c0,0-25.9,12.1-49.6,49.3l28.1-11c0,0-28.1,32.4-43.8,83.6
		c0,0,64.1-45.1,72.7-61.5l-5.4,27.7c0,0,48.9-31.4,60.3-53.1l-21.9,41.9C139.9,250.1,193.2,223.5,222.2,168.2z"/>
	<path class="st2" d="M34.3,297.3c-0.4,0-0.9-0.1-1.3-0.4c-0.8-0.5-1.1-1.5-0.8-2.4c11.7-38.1,30.4-66.1,39.2-78.1l-20.6,8.1
		c-0.9,0.3-1.9,0.1-2.5-0.7c-0.6-0.7-0.7-1.8-0.2-2.5c17.3-27.1,35.5-41,44.6-46.8l-15.8-2c-0.9-0.1-1.6-0.7-1.8-1.5
		c-0.3-0.8,0-1.7,0.6-2.3c22.1-19.3,46.5-29.1,72.5-29.1c42.5,0,73.9,25.8,75.2,26.9c0.8,0.7,1,1.8,0.5,2.7
		c-28.9,55.2-82.7,82.5-83.2,82.8c-0.8,0.4-1.9,0.3-2.5-0.4c-0.7-0.7-0.8-1.7-0.4-2.5l11.7-22.4c-18.3,18-45.4,35.5-47,36.5
		c-0.7,0.5-1.7,0.5-2.4,0c-0.7-0.5-1.1-1.4-0.9-2.2l3.6-18.5c-18,19.6-65.2,53-67.5,54.6C35.2,297.2,34.8,297.3,34.3,297.3z
		 M78.1,209.3c0.7,0,1.4,0.3,1.8,0.9c0.6,0.8,0.5,1.9-0.1,2.7c-0.3,0.3-25.7,30-41.4,76.6c15.5-11.2,59.8-43.9,66.7-57
		c0.5-1,1.6-1.4,2.7-1c1,0.4,1.6,1.4,1.4,2.5l-4.4,22.6c12.1-8.2,46.1-32.2,55.2-49.4l0,0c0.6-1.1,1.9-1.5,2.9-0.9
		c1.1,0.6,1.5,1.9,0.9,2.9l-18.5,35.4c14.7-8.8,51.6-33.9,74.1-75.7c-6.5-4.9-35-24.8-71-24.8c-23.5,0-45.6,8.4-65.8,24.8l17.3,2.2
		c1,0.1,1.7,0.9,1.9,1.8c0.2,1-0.3,1.9-1.2,2.3c-0.2,0.1-22.9,11-44.9,42.8l21.7-8.5C77.6,209.4,77.9,209.3,78.1,209.3z"/>
</g>
<g>
	<path class="st1" d="M233.5,171c0,0,72.8-60.8,144.9,2.1l-22.3,2.8c0,0,25.9,12.1,49.6,49.3l-28.1-11c0,0,28.1,32.4,43.8,83.6
		c0,0-64.1-45.1-72.7-61.5l5.4,27.7c0,0-48.9-31.4-60.3-53.1l21.9,41.9C315.7,252.8,262.4,226.3,233.5,171z"/>
	<path class="st2" d="M421.3,300.1c-0.4,0-0.9-0.1-1.3-0.4c-2.3-1.6-49.5-34.9-67.5-54.6l3.6,18.5c0.2,0.9-0.2,1.7-0.9,2.2
		c-0.7,0.5-1.7,0.5-2.4,0c-1.5-1-28.6-18.5-47-36.5l11.6,22c0.3,0.4,0.5,0.8,0.5,1.4c0,1.2-1,2.2-2.2,2.2c0,0,0,0,0,0
		c-0.3,0-0.7-0.1-1-0.2c-0.5-0.3-54.3-27.5-83.2-82.8c-0.5-0.9-0.3-2,0.5-2.7c1.3-1.1,32.7-26.9,75.2-26.9c26,0,50.4,9.8,72.5,29.1
		c0.7,0.6,0.9,1.5,0.7,2.3c-0.3,0.8-1,1.4-1.8,1.5l-15.8,2c9.1,5.8,27.4,19.7,44.6,46.8c0.5,0.8,0.4,1.8-0.2,2.6
		c-0.6,0.7-1.6,1-2.5,0.6l-20.6-8.1c8.9,11.9,27.6,40,39.2,78.1c0.3,0.9-0.1,1.9-0.8,2.4C422.2,299.9,421.8,300.1,421.3,300.1z
		 M348.6,234.2c0.8,0,1.5,0.4,1.9,1.2c6.8,13.1,51.2,45.8,66.7,57c-15.6-46.6-41.1-76.3-41.4-76.6c-0.7-0.8-0.7-1.9-0.1-2.7
		c0.6-0.8,1.6-1.1,2.6-0.8l21.7,8.5c-22-31.9-44.6-42.7-44.9-42.8c-0.9-0.4-1.4-1.4-1.2-2.3c0.1-0.9,0.9-1.7,1.9-1.8l17.3-2.2
		c-20.3-16.5-42.4-24.8-65.8-24.8c-36.1,0-64.5,19.9-71,24.8c22.5,41.9,59.5,67,74.2,75.7l-18.5-35.4c-0.6-1.1-0.1-2.4,0.9-2.9
		c1.1-0.6,2.4-0.1,2.9,0.9c9,17.2,43.1,41.2,55.2,49.4l-4.4-22.6c-0.2-1.1,0.4-2.1,1.4-2.5C348.1,234.2,348.4,234.2,348.6,234.2z"/>
</g>
<g>
	<path class="st1" d="M238.3,174.6c0,0-61.7-46.4-25.3-115.1l6.3,17.1c0,0,4.8-22.7,29.9-48.4l-3.5,24.3c0,0,20.4-28.3,58.1-50.2
		c0,0-23.8,59.2-35.2,69l20.9-9.5c0,0-15.8,44.6-30.9,57.6l29.1-25.2C287.8,94.2,276.7,141.4,238.3,174.6z"/>
	<path class="st2" d="M238.3,176.8c-0.5,0-0.9-0.1-1.3-0.4c-0.6-0.5-62.8-48.3-25.9-117.9c0.4-0.8,1.2-1.2,2.1-1.2
		c0.9,0.1,1.6,0.6,1.9,1.4l4.1,11.1c3.2-8.7,10.9-25.1,28.5-43.2c0.7-0.7,1.7-0.8,2.5-0.4c0.8,0.4,1.3,1.3,1.2,2.3l-2.4,16.5
		c8.3-9.7,26.7-28.9,53.7-44.6c0.8-0.5,1.8-0.4,2.5,0.2c0.7,0.6,0.9,1.6,0.6,2.5c-0.8,2.1-17.7,43.9-29.9,62.5l12.7-5.8
		c0.8-0.4,1.7-0.2,2.4,0.4c0.6,0.6,0.9,1.5,0.6,2.3c-0.5,1.3-8.6,24.2-18.9,41.9l13.7-11.8c0.7-0.6,1.7-0.7,2.6-0.2
		c0.8,0.5,1.2,1.4,1,2.4c-0.1,0.5-11.7,48.2-50.2,81.5C239.3,176.6,238.8,176.8,238.3,176.8z M212.7,64.9
		c-27.7,58.3,17,99.7,25.5,106.8c27.8-24.7,40.8-57,45.4-71L260.2,121c0,0,0,0,0,0l0,0c-0.9,0.8-2.3,0.7-3.1-0.2
		c-0.8-0.9-0.7-2.3,0.2-3.1c11.6-10,23.9-40,28.4-51.8l-16.2,7.3c-1,0.5-2.1,0.1-2.7-0.8c-0.6-0.9-0.4-2.1,0.4-2.8
		c7.9-6.8,23.3-40.7,32.1-62.1c-33.3,20.9-51.6,46-51.8,46.3c-0.6,0.8-1.7,1.1-2.6,0.7c-0.9-0.4-1.5-1.3-1.3-2.3l2.5-17.4
		c-20.3,22.8-24.6,42.1-24.6,42.3c-0.2,1-1,1.7-2,1.7c-1,0-1.9-0.5-2.2-1.4L212.7,64.9z"/>
</g>
<path class="st2" d="M227.5,699.2c-6.9-136.9-0.2-507.5,0.2-530.5c3.6-2.5,5.4-3.1,6.3-3.3c0,0.2,0,0.3,0,0.5
	c3.8,25.7,12.8,481.4,13.8,533.3h4.4c-1.1-54.4-10-504.6-13.9-533.6c0.1-0.7,0-2.1-0.9-3.2c-0.5-0.6-1.5-1.4-3.1-1.4
	c-2.3,0-5.5,1.5-10,4.7c-0.6,0.4-0.9,1-0.9,1.7c-0.1,3.9-7.4,390.7-0.3,531.7H227.5z"/>
<g>
	<path class="st3" d="M226.5,165.2c0,0,26.5-91.1,121.4-79.1L331,100.8c0,0,28.2-4.4,68.7,13.3l-29.4,6.6c0,0,41.4,11.2,83,44.9
		c0,0-78.3-1.7-94.7-10.5l20,20c0,0-50.1-3.1-71.7-14.8l26.7,24.8C333.6,185.1,253.4,180.4,226.5,165.2z"/>
	<path class="st2" d="M333.6,187.3c0,0-0.1,0-0.1,0c-3.3-0.2-81-4.9-108-20.2c-0.9-0.5-1.3-1.5-1-2.5c0.2-0.8,24.7-81.7,106.6-81.7
		c5.6,0,11.3,0.4,17.1,1.1c0.8,0.1,1.6,0.7,1.8,1.5c0.3,0.8,0,1.7-0.7,2.3l-12,10.5c0.7,0,1.6,0,2.4,0c10.8,0,33,1.8,60.8,13.9
		c0.9,0.4,1.4,1.3,1.3,2.2c-0.1,0.9-0.8,1.7-1.7,1.9l-21.6,4.8c14,4.9,45.2,17.8,76.1,42.9c0.7,0.6,1,1.6,0.7,2.4
		c-0.3,0.9-1.1,1.4-2,1.4c0,0,0,0,0,0c-2.8-0.1-60.6-1.4-86.5-7.6l13.4,13.3c0.6,0.6,0.8,1.6,0.4,2.4c-0.4,0.8-1.2,1.3-2.1,1.3
		c-1.8-0.1-37.2-2.4-61.2-10.3l17.6,16.3c0.6,0.4,1,1.1,1,1.8C335.8,186.3,334.9,187.4,333.6,187.3
		C333.6,187.3,333.6,187.3,333.6,187.3z M229.2,164.1c23,11.8,79.6,16.9,98.4,18.4l-22.2-20.6c-0.8-0.7-0.9-2-0.3-2.9
		c0.6-0.9,1.8-1.2,2.8-0.6c16.6,9,51.1,12.8,64.9,14.1L357,156.7c-0.8-0.8-0.8-2-0.2-2.8c0.6-0.9,1.8-1.1,2.8-0.6
		c13,7,68,9.4,87.1,10c-39-30-76.7-40.4-77.1-40.5c-1-0.3-1.6-1.1-1.6-2.2c0-1,0.7-1.9,1.7-2.1l22.7-5.1c-24.1-9.5-43.1-11-52.7-11
		c-5.4,0-8.4,0.5-8.4,0.5c-1,0.1-1.9-0.4-2.3-1.2c-0.4-0.9-0.2-1.9,0.5-2.6l13.2-11.5c-4-0.4-7.9-0.5-11.7-0.5
		C258.9,87.2,233.1,152.8,229.2,164.1z"/>
</g>
<g>
	<path class="st3" d="M226.5,167.5c0,0,92.7-20.1,127.3,69.1l-21-7.9c0,0,17.3,22.7,21,66.7l-19.8-22.7c0,0,9.9,41.7,0,94.4
		c0,0-35.8-69.7-35.8-88.2l-8,27c0,0-28.8-50.5-28.8-75v47.3C261.4,278.2,226.5,229.9,226.5,167.5z"/>
	<path class="st2" d="M334.1,369.3c-0.8,0-1.6-0.5-1.9-1.2c-1.3-2.5-27.7-53.9-34.5-79.7l-5.4,18.1c-0.2,0.8-1,1.4-1.8,1.5
		c-0.9,0.1-1.7-0.3-2.1-1.1c-0.9-1.6-16.8-29.7-24.7-54.1v25.3c0,0.9-0.6,1.8-1.5,2.1c-0.9,0.3-1.9,0-2.4-0.8
		c-0.4-0.5-35.3-49.6-35.3-111.9c0-1,0.7-1.9,1.7-2.1c0.4-0.1,9.3-2,22.8-2c29.5,0,82.6,9.4,107,72.4c0.3,0.8,0.1,1.7-0.5,2.3
		c-0.6,0.6-1.5,0.8-2.3,0.5l-14.9-5.6c5.4,9.3,15.1,30.1,17.8,62.2c0.1,0.9-0.5,1.8-1.3,2.2c-0.9,0.4-1.9,0.1-2.5-0.6l-14.5-16.7
		c2.3,14.7,5.9,48.2-1.5,87.4c-0.2,0.9-0.9,1.6-1.8,1.7C334.3,369.2,334.2,369.3,334.1,369.3z M298.2,276.7c0.1,0,0.2,0,0.3,0
		c1.1,0.1,1.9,1.1,1.9,2.2c0,14.7,24.1,64.3,32.7,81.4c7.8-48.6-1-86.6-1.1-87c-0.2-1,0.2-2,1.1-2.4c0.9-0.5,2-0.3,2.6,0.5
		l15.3,17.5c-4.7-38.4-19.7-58.6-19.9-58.8c-0.6-0.8-0.6-1.8,0-2.6c0.6-0.8,1.6-1.1,2.5-0.7l16.4,6.1
		c-24.3-56.5-73.5-65.1-101.1-65.1c-9.6,0-17,1-20.2,1.6c0.5,47.6,21.6,86.9,30.5,101.5v-40c0-1.2,1-2.2,2.2-2.2
		c1.2,0,2.2,1,2.2,2.2c0,19.4,19,56.5,26,69.4l6.6-22.1C296.4,277.3,297.3,276.7,298.2,276.7z"/>
</g>
<g>
	<path class="st3" d="M228.9,165.2c0,0-26.5-91.1-121.4-79.1l16.9,14.7c0,0-28.2-4.4-68.7,13.3l29.4,6.6c0,0-41.4,11.2-83,44.9
		c0,0,78.3-1.7,94.7-10.5l-20,20c0,0,50.1-3.1,71.7-14.8l-26.7,24.8C121.8,185.1,202,180.4,228.9,165.2z"/>
	<path class="st2" d="M121.8,187.3c-0.9,0-1.7-0.5-2-1.3c-0.4-0.8-0.1-1.8,0.5-2.4l17.8-16.5c-24,7.9-59.4,10.2-61.2,10.3
		c-0.9,0.1-1.7-0.5-2.1-1.3c-0.4-0.8-0.2-1.8,0.4-2.4l13.4-13.3c-25.9,6.3-83.7,7.5-86.5,7.6c-0.9,0-1.8-0.6-2.1-1.4
		c-0.3-0.9,0-1.9,0.7-2.4c30.9-25.1,62.1-37.9,76.1-42.9l-21.6-4.8c-0.9-0.2-1.6-1-1.7-1.9c-0.1-0.9,0.4-1.8,1.3-2.2
		c27.8-12.1,50-13.9,60.7-13.9c0.9,0,1.7,0,2.4,0l-12-10.5c-0.6-0.6-0.9-1.5-0.7-2.3c0.3-0.8,1-1.4,1.8-1.5
		c5.8-0.7,11.6-1.1,17.1-1.1c81.9,0,106.4,80.9,106.6,81.7c0.3,1-0.1,2-1,2.5c-27,15.3-104.7,20-108,20.2
		C121.9,187.3,121.9,187.3,121.8,187.3z M148.6,158.1c0.7,0,1.3,0.3,1.8,0.9c0.6,0.9,0.5,2.1-0.3,2.9l-22.2,20.6
		c18.8-1.4,75.4-6.6,98.4-18.4c-3.9-11.4-29.7-76.9-101.9-76.9c-3.8,0-7.7,0.2-11.7,0.5l13.2,11.5c0.7,0.6,1,1.7,0.5,2.6
		c-0.4,0.9-1.4,1.4-2.3,1.2c0,0-3.1-0.5-8.4-0.5c-9.6,0-28.6,1.5-52.7,11l22.7,5.1c1,0.2,1.7,1.1,1.7,2.1c0,1-0.6,1.9-1.6,2.2
		c-0.4,0.1-38.1,10.5-77.1,40.5c19.1-0.6,74.2-3,87.1-10c0.9-0.5,2.1-0.3,2.8,0.6c0.6,0.9,0.6,2.1-0.2,2.8l-15.8,15.8
		c13.8-1.2,48.3-5.1,64.9-14.1C147.8,158.2,148.2,158.1,148.6,158.1z"/>
</g>
<g>
	<path class="st3" d="M228.9,167.5c0,0-92.7-20.1-127.3,69.1l21-7.9c0,0-17.3,22.7-21,66.7l19.8-22.7c0,0-9.9,41.7,0,94.4
		c0,0,35.8-69.7,35.8-88.2l8,27c0,0,28.8-50.5,28.8-75v47.3C194,278.2,228.9,229.9,228.9,167.5z"/>
	<path class="st2" d="M121.3,369.3c-0.1,0-0.2,0-0.3,0c-0.9-0.1-1.7-0.8-1.8-1.7c-7.3-39.2-3.8-72.7-1.5-87.4l-14.5,16.7
		c-0.6,0.7-1.6,0.9-2.5,0.6c-0.9-0.4-1.4-1.2-1.3-2.2c2.7-32.1,12.4-52.8,17.8-62.2l-14.9,5.6c-0.8,0.3-1.7,0.1-2.3-0.5
		c-0.6-0.6-0.8-1.5-0.5-2.3c24.4-63,77.5-72.4,107-72.4c13.5,0,22.4,1.9,22.8,2c1,0.2,1.7,1.1,1.7,2.1c0,62.4-35,111.4-35.3,111.9
		c-0.6,0.8-1.5,1.1-2.4,0.8c-0.9-0.3-1.5-1.1-1.5-2.1v-25.3c-7.9,24.4-23.8,52.5-24.7,54.1c-0.4,0.8-1.3,1.2-2.1,1.1
		c-0.9-0.1-1.6-0.7-1.8-1.5l-5.4-18.1c-6.8,25.7-33.2,77.2-34.5,79.7C122.9,368.8,122.1,369.3,121.3,369.3z M121.3,270.5
		c0.3,0,0.7,0.1,1,0.2c0.9,0.5,1.4,1.5,1.1,2.4c-0.1,0.4-8.9,38.5-1.1,87c8.5-17.1,32.7-66.7,32.7-81.4c0-1.1,0.8-2,1.9-2.2
		c1.1-0.2,2.1,0.5,2.4,1.5l6.6,22.1c6.9-12.9,26-50,26-69.4c0-1.2,1-2.2,2.2-2.2c1.2,0,2.2,1,2.2,2.2v40c8.9-14.6,30-54,30.5-101.5
		c-3.2-0.5-10.5-1.6-20.2-1.6c-27.6,0-76.8,8.6-101.1,65.1l16.4-6.1c0.9-0.3,1.9,0,2.5,0.7c0.6,0.8,0.6,1.8,0,2.6
		c-0.2,0.2-15.2,20.4-19.9,58.8l15.3-17.5C120.1,270.8,120.7,270.5,121.3,270.5z"/>
</g>
<g>
	<path class="st3" d="M228.9,167.5c52.3,23.2,70.5,76.5,70.5,76.5"/>
	<path class="st2" d="M299.4,246.2c-0.9,0-1.7-0.6-2.1-1.5c-0.2-0.5-18.6-52.8-69.4-75.3c-1.1-0.5-1.6-1.8-1.1-2.9
		c0.5-1.1,1.8-1.6,2.9-1.1c52.6,23.3,71.5,77.3,71.7,77.8c0.4,1.1-0.2,2.4-1.4,2.8C299.9,246.2,299.6,246.2,299.4,246.2z"/>
</g>
<g>
	<path class="st3" d="M157.6,221.2c0,0,31.6-49.1,67.9-54.3"/>
	<path class="st2" d="M157.6,223.4c-0.4,0-0.8-0.1-1.2-0.3c-1-0.7-1.3-2-0.7-3c1.3-2,32.5-50,69.4-55.3c1.2-0.2,2.3,0.7,2.5,1.9
		c0.2,1.2-0.7,2.3-1.8,2.5c-34.9,5-66,52.8-66.4,53.3C159,223.1,158.3,223.4,157.6,223.4z"/>
</g>
<g>
	<path class="st3" d="M141.5,121.5c0,0,59.2,7.5,85,43.7"/>
	<path class="st2" d="M226.5,167.4c-0.7,0-1.4-0.3-1.8-0.9c-25-34.9-83-42.7-83.5-42.8c-1.2-0.2-2-1.2-1.9-2.4
		c0.2-1.2,1.2-2,2.4-1.9c2.5,0.3,60.4,8,86.5,44.6c0.7,1,0.5,2.3-0.5,3C227.4,167.2,227,167.4,226.5,167.4z"/>
</g>
<g>
	<path class="st3" d="M305.2,126.4c0,0-59.8,6.9-76.3,41.2"/>
	<path class="st2" d="M228.9,169.7c-0.3,0-0.6-0.1-0.9-0.2c-1.1-0.5-1.5-1.8-1-2.9c16.9-34.9,75.5-42.1,78-42.4
		c1.2-0.1,2.3,0.7,2.4,1.9c0.1,1.2-0.7,2.3-1.9,2.4c-0.6,0.1-58.8,7.2-74.6,40C230.5,169.2,229.7,169.7,228.9,169.7z"/>
</g>
<g>
	<path class="st1" d="M236.2,90.9c0,0-11.1,22.1-9.6,66.8"/>
	<path class="st2" d="M226.5,159.9c-1.2,0-2.1-0.9-2.2-2.1c-1.5-44.8,9.4-66.9,9.9-67.9c0.5-1.1,1.8-1.5,2.9-1
		c1.1,0.5,1.5,1.8,1,2.9c-0.1,0.2-10.8,22.2-9.4,65.8C228.7,158.8,227.8,159.8,226.5,159.9C226.6,159.9,226.6,159.9,226.5,159.9z"/>
</g>
<path class="st2" d="M244.6,189.9c0,1-0.8,1.8-1.8,1.8c-1,0-1.8-0.8-1.8-1.8c0-1,0.8-1.8,1.8-1.8
	C243.8,188.1,244.6,188.9,244.6,189.9z"/>
<path class="st2" d="M279.3,185.1c0,1-0.8,1.8-1.8,1.8c-1,0-1.8-0.8-1.8-1.8c0-1,0.8-1.8,1.8-1.8
	C278.5,183.3,279.3,184.1,279.3,185.1z"/>
<path class="st2" d="M289.5,146.9c0,1-0.8,1.8-1.8,1.8c-1,0-1.8-0.8-1.8-1.8c0-1,0.8-1.8,1.8-1.8C288.7,145.1,289.5,146,289.5,146.9
	z"/>
<path class="st2" d="M292,116.8c0,1-0.8,1.8-1.8,1.8c-1,0-1.8-0.8-1.8-1.8c0-1,0.8-1.8,1.8-1.8C291.2,115,292,115.8,292,116.8z"/>
<path class="st2" d="M167,145.1c0,1-0.8,1.8-1.8,1.8c-1,0-1.8-0.8-1.8-1.8c0-1,0.8-1.8,1.8-1.8C166.2,143.4,167,144.2,167,145.1z"/>
<path class="st2" d="M165.2,115c0,1-0.8,1.8-1.8,1.8c-1,0-1.8-0.8-1.8-1.8c0-1,0.8-1.8,1.8-1.8C164.4,113.2,165.2,114.1,165.2,115z"
	/>
<path class="st2" d="M201.2,209c0,1-0.8,1.8-1.8,1.8c-1,0-1.8-0.8-1.8-1.8c0-1,0.8-1.8,1.8-1.8C200.4,207.2,201.2,208,201.2,209z"/>
<path class="st2" d="M143.3,211.1c0,1-0.8,1.8-1.8,1.8c-1,0-1.8-0.8-1.8-1.8c0-1,0.8-1.8,1.8-1.8
	C142.5,209.3,143.3,210.2,143.3,211.1z"/>
<path class="st2" d="M178,182.2c0,1-0.8,1.8-1.8,1.8c-1,0-1.8-0.8-1.8-1.8c0-1,0.8-1.8,1.8-1.8C177.2,180.4,178,181.2,178,182.2z"/>
<path class="st2" d="M188.2,148.7c0,1-0.8,1.8-1.8,1.8c-1,0-1.8-0.8-1.8-1.8c0-1,0.8-1.8,1.8-1.8
	C187.4,146.9,188.2,147.7,188.2,148.7z"/>
<path class="st2" d="M188.2,123.2c0,1-0.8,1.8-1.8,1.8c-1,0-1.8-0.8-1.8-1.8c0-1,0.8-1.8,1.8-1.8
	C187.4,121.4,188.2,122.2,188.2,123.2z"/>
<path class="st2" d="M231.1,266.3c0,1-0.8,1.8-1.8,1.8c-1,0-1.8-0.8-1.8-1.8c0-1,0.8-1.8,1.8-1.8
	C230.3,264.5,231.1,265.3,231.1,266.3z"/>
<path class="st2" d="M233.1,246.2c0,1-0.8,1.8-1.8,1.8c-1,0-1.8-0.8-1.8-1.8c0-1,0.8-1.8,1.8-1.8
	C232.3,244.5,233.1,245.3,233.1,246.2z"/>
<path class="st2" d="M237,486.8c0,1-0.8,1.8-1.8,1.8c-1,0-1.8-0.8-1.8-1.8c0-1,0.8-1.8,1.8-1.8C236.2,485,237,485.8,237,486.8z"/>
<path class="st2" d="M235.8,459.2c0,1-0.8,1.8-1.8,1.8c-1,0-1.8-0.8-1.8-1.8c0-1,0.8-1.8,1.8-1.8C235,457.5,235.8,458.3,235.8,459.2
	z"/>
<path class="st2" d="M230.7,585.4c0,1-0.8,1.8-1.8,1.8c-1,0-1.8-0.8-1.8-1.8c0-1,0.8-1.8,1.8-1.8
	C229.9,583.6,230.7,584.4,230.7,585.4z"/>
<path class="st2" d="M249.5,676.3h-13.3c-1.2,0-2.2-1-2.2-2.2c0-1.2,1-2.2,2.2-2.2h13.3c1.2,0,2.2,1,2.2,2.2
	C251.7,675.4,250.7,676.3,249.5,676.3z"/>
<path class="st2" d="M231,631h-6.7c-1.2,0-2.2-1-2.2-2.2c0-1.2,1-2.2,2.2-2.2h6.7c1.2,0,2.2,1,2.2,2.2
	C233.2,630.1,232.2,631,231,631z"/>
<path class="st2" d="M242.7,364.3h-11.4c-1.2,0-2.2-1-2.2-2.2c0-1.2,1-2.2,2.2-2.2h11.4c1.2,0,2.2,1,2.2,2.2
	C244.9,363.4,243.9,364.3,242.7,364.3z"/>
</svg>
