<?xml version="1.0" encoding="utf-8"?>
<!-- Generator: Adobe Illustrator 27.9.4, SVG Export Plug-In . SVG Version: 9.03 Build 54784)  -->
<svg version="1.1" id="Calque_1" xmlns="http://www.w3.org/2000/svg" xmlns:xlink="http://www.w3.org/1999/xlink" x="0px" y="0px"
	 viewBox="0 0 3310 105.9" style="enable-background:new 0 0 3310 105.9;" xml:space="preserve">
<style type="text/css">
	.st0{fill:#E7D09F;}
</style>
<path class="st0" d="M1655,0H0v60.5c9-1.6,18-3.9,26-4.4c13.8-0.8,26,0.3,39,4.8c31.7,11.1,71.9,28.6,106.2,17.4
	c19.7-6.4,34.5-15.3,56.5-16.3c19.4-0.9,30.9,1,48.4,9c37.8,17.3,90.1,29.4,131.1,21.4c47.5-9.3,93.2-27.5,142.4-27.4
	c50.9,0.1,98.3,17,148.9,19.6c47.9,2.4,85.8-17.4,131.4-25.9c54.3-10.1,112.7,0.4,166.4,9.7c69.3,12,146.2,6,215.7-3
	c36.1-4.7,72.9-8.9,109.1-3.3c25.5,4,48.8,11,73.6,17.6c64.9,17.1,125.8,21.4,192.2,21.4c13.7,0,27-1,40.2-2.6
	c18.6-2.2,37.3-2.2,55.9,0c13.1,1.6,26.5,2.6,40.2,2.6c66.3,0,127.3-4.3,192.2-21.4c24.8-6.6,48.1-13.6,73.6-17.6
	c36.3-5.6,73-1.4,109.1,3.3c69.6,9,146.4,15,215.7,3c53.7-9.3,112-19.7,166.4-9.7c45.6,8.5,83.5,28.3,131.4,25.9
	c50.6-2.6,97.9-19.4,148.9-19.6c49.1-0.1,94.8,18.2,142.4,27.4c41,8,93.3-4.1,131.1-21.4c17.5-8,29-9.9,48.4-9
	c22,1,36.9,9.9,56.5,16.3c34.3,11.2,74.5-6.3,106.2-17.4c12.9-4.5,25.2-5.6,39-4.8c8,0.5,17,2.8,26,4.4V0H1655z"/>
<path d="M3305.2,55.1c-14.7-2.9-28.9-4.8-43.9-2.6c-16.7,2.4-32.3,9.8-48.2,15.1c-16.2,5.3-33,10-50.1,10c-17,0-31.7-6.8-47.4-12.5
	c-14.7-5.4-29.4-8-45.1-7.5c-13.8,0.4-26.3,4.2-38.9,9.8c-15.6,6.9-31.7,12.5-48.3,16.6c-34.5,8.4-66.8,7.9-101.2-0.4
	c-34.7-8.4-69.1-19.3-104.9-22.1c-35.6-2.8-70.7,4.3-105.5,10.8c-37.3,6.9-73.4,11.6-110.9,3.1c-32-7.3-62.6-19.2-95.4-23.1
	c-73-8.7-143.7,15.7-216.2,18.2c-37.1,1.3-74.2-0.9-111.1-4.7c-36.7-3.8-73.4-10.5-110.4-10.7c-37.3-0.2-72.5,9.4-108.3,18.9
	c-36.5,9.8-73.8,16.3-111.5,19.5c-36.7,3.1-74.5,5.1-111.3,2c-4.7-0.4-9.3-0.9-14-1.5c-18.5-2.2-37.2-2.2-55.7,0
	c-4.7,0.6-9.3,1.1-14,1.5c-36.8,3.1-74.6,1.1-111.3-2c-37.7-3.2-75-9.7-111.5-19.5c-35.7-9.6-71-19.2-108.3-18.9
	c-37,0.2-73.7,6.9-110.4,10.7c-36.9,3.8-74,5.9-111.1,4.7c-72.5-2.5-143.2-27-216.2-18.2c-32.7,3.9-63.4,15.8-95.4,23.1
	c-37.4,8.5-73.6,3.8-110.9-3.1c-34.8-6.4-69.9-13.5-105.5-10.8c-35.8,2.8-70.1,13.7-104.9,22.1c-34.4,8.3-66.7,8.8-101.2,0.4
	c-16.6-4-32.7-9.7-48.3-16.6c-12.6-5.6-25.1-9.3-38.9-9.8c-15.6-0.5-30.4,2.1-45.1,7.5c-15.7,5.7-30.3,12.5-47.4,12.5
	c-17.1,0-33.9-4.6-50.1-10C81,62.3,65.4,54.8,48.7,52.5c-15-2.1-29.2-0.3-43.9,2.6C3.3,55.4,1.7,55.7,0,56v9.1
	c1.3-0.2,2.7-0.5,4-0.7c18.5-3.4,36-5.9,54.5-0.7c31.5,8.9,61.3,25.1,95.1,22.6c15.9-1.2,29.9-7.8,44.7-13.1
	c16.3-5.9,33.7-8.3,50.9-5.8c15.8,2.3,29.9,10.5,44.7,16c15.8,5.8,32.1,10.2,48.7,13c34.2,5.8,65.1,1.6,98.5-6.9
	C478,80,515,69,553.4,69.7c38.5,0.7,75.9,11,113.8,16.4C702,91,734.1,89,767.9,79.7c35.3-9.6,69.2-20.1,106.2-20.5
	c38.3-0.5,76.2,5.9,113.8,12.4c73.9,12.8,148.3,8.1,222.3-1.4c39.7-5.1,79.5-9.5,119.2-2c37.5,7,73.7,19.6,111.3,26.3
	c62.2,11.1,127,14.8,190,7.7c16.2-1.8,32.5-1.8,48.7,0c63,7,127.8,3.4,190-7.7c37.6-6.7,73.8-19.3,111.3-26.3
	c39.7-7.4,79.5-3,119.2,2c74,9.5,148.4,14.1,222.3,1.4c37.6-6.5,75.5-12.8,113.8-12.4c37,0.5,70.9,10.9,106.2,20.5
	c33.8,9.2,65.8,11.2,100.6,6.3c38-5.4,75.3-15.7,113.8-16.4C2795,69,2832,80,2868.9,89.4c33.3,8.5,64.3,12.7,98.5,6.9
	c16.6-2.8,32.9-7.2,48.7-13c14.8-5.4,28.9-13.7,44.7-16c17.3-2.5,34.6,0,50.9,5.8c14.8,5.3,28.8,12,44.7,13.1
	c33.7,2.5,63.6-13.7,95.1-22.6c18.5-5.2,36-2.8,54.5,0.7c1.3,0.2,2.7,0.5,4,0.7V56C3308.3,55.7,3306.7,55.4,3305.2,55.1z"/>
</svg>
